<?xml version="1.0" encoding="UTF-8"?>
<svg width="60px" height="60px" viewBox="0 0 60 60" version="1.1" xmlns="http://www.w3.org/2000/svg" xmlns:xlink="http://www.w3.org/1999/xlink">
    <!-- Generator: Sketch 63.1 (92452) - https://sketch.com -->
    <title>Icons/Aller</title>
    <desc>Created with Sketch.</desc>
    <g id="Icons/Aller" stroke="none" stroke-width="1" fill="none" fill-rule="evenodd">
        <path d="M51.098,43.3917647 C52.0175294,43.3917647 52.7829412,44.0978824 52.8570588,45.0143529 L53.2798824,50.2465882 C53.6974118,55.4161176 49.7447059,60 44.3543529,60 C38.9667059,60 35.0112941,55.418 35.4290588,50.2458824 L35.8517647,45.0143529 C35.9257647,44.0977647 36.6912941,43.3917647 37.6108235,43.3917647 L51.098,43.3917647 Z M49.4697647,46.9212941 L39.2385882,46.9212941 L38.9469412,50.5302353 C38.6837647,53.7871765 41.1564706,56.4705882 44.3542353,56.4705882 C47.5477647,56.4705882 50.0251765,53.7936471 49.7615294,50.5309412 L49.4697647,46.9212941 Z M21.9192941,32.2977647 C22.8388235,32.2977647 23.6042353,33.0038824 23.6783529,33.9203529 L24.1010588,39.1518824 C24.5188235,44.3236471 20.5635294,48.906 15.1756471,48.906 C9.78529412,48.906 5.83270588,44.3221176 6.25035294,39.1525882 L6.67305882,33.9203529 C6.74705882,33.0037647 7.51247059,32.2977647 8.43211765,32.2977647 L21.9192941,32.2977647 Z M20.2912941,35.8271765 L10.06,35.8271765 L9.76835294,39.4368235 C9.50458824,42.702 11.9844706,45.3764706 15.1756471,45.3764706 C18.3742353,45.3764706 20.846,42.6921176 20.5829412,39.4361176 L20.2912941,35.8271765 Z M43.6112941,11.1429412 C56.6777647,12.3123529 58.3184706,29.5915294 51.5568235,38.7775294 C51.2242353,39.2294118 50.6964706,39.4961176 50.1355294,39.4961176 L38.0490588,39.4961176 C37.4734118,39.4961176 36.934,39.2154118 36.6038824,38.744 C32.5774118,32.9976471 30.6644706,22.1465882 34.3570588,15.7634118 C36.2895294,12.4227059 39.5769412,10.7816471 43.6112941,11.1429412 Z M37.412,17.5308235 C34.8917647,21.8877647 35.6977647,30.5777647 39.0015294,35.9667059 L49.2090588,35.9667059 C53.9018824,28.6804706 52.9482353,15.5223529 43.2965882,14.6584706 C40.5948235,14.4164706 38.67,15.3562353 37.412,17.5308235 Z M25.1730588,4.66952941 C28.8656471,11.0527059 26.9525882,21.9037647 22.9262353,27.65 C22.596,28.1214118 22.0565882,28.4021176 21.4810588,28.4021176 L9.39447059,28.4021176 C8.83341176,28.4021176 8.30576471,28.1352941 7.97317647,27.6834118 C1.20776471,18.492 2.85647059,1.218 15.9187059,0.0489411765 C19.9536471,-0.311647059 23.2405882,1.32870588 25.1730588,4.66952941 Z M16.2334118,3.56435294 C6.58988235,4.42752941 5.62364706,17.5798824 10.3209412,24.8725882 L20.5284706,24.8725882 C23.8323529,19.4837647 24.6383529,10.7937647 22.118,6.43682353 C20.86,4.26211765 18.9348235,3.32282353 16.2334118,3.56435294 Z" id="Combined-Shape" fill="#44454B"></path>
    </g>
</svg>