<?xml version="1.0" encoding="UTF-8"?>
<svg width="60px" height="60px" viewBox="0 0 60 60" version="1.1" xmlns="http://www.w3.org/2000/svg" xmlns:xlink="http://www.w3.org/1999/xlink">
    <!-- Generator: Sketch 63.1 (92452) - https://sketch.com -->
    <title>Icons/Appeler</title>
    <desc>Created with Sketch.</desc>
    <g id="Icons/Appeler" stroke="none" stroke-width="1" fill="none" fill-rule="evenodd">
        <path d="M58.4562891,44.2538672 L50.9974219,36.795 C48.9410156,34.7387109 45.5948437,34.7387109 43.5385547,36.795 L40.1482031,40.1853516 C38.5903125,41.7432422 36.0553125,41.7427734 34.4980078,40.1859375 L19.8026953,25.4780859 C18.2411719,23.9165625 18.2409375,21.3891797 19.8026953,19.8274219 C20.3487891,19.2813281 21.916875,17.7132422 23.1930469,16.4370703 C25.2404297,14.3898047 25.2690234,11.0540625 23.1910547,8.97632812 L15.7341797,1.54289062 C13.6777734,-0.513398438 10.3317188,-0.513398438 8.28082031,1.5375 C6.74613281,3.05882812 6.25113281,3.54960937 5.56300781,4.23175781 C-1.85261719,11.6472656 -1.85261719,23.7132422 5.56265625,31.1285156 L28.846875,54.4249219 C36.2798437,61.8580078 48.3103125,61.8585937 55.7438672,54.4249219 L58.4562891,51.7126172 C60.5126953,49.6562109 60.5126953,46.3102734 58.4562891,44.2538672 Z M10.7616797,4.02914062 C11.4471094,3.34371094 12.5622656,3.34359375 13.2499219,4.03101563 L20.7067969,11.4644531 C21.3938672,12.1515234 21.3938672,13.2635156 20.7067969,13.9507031 L19.4635547,15.1938281 L9.52488281,5.25515625 L10.7616797,4.02914062 Z M31.3335937,51.9390234 L8.04925781,28.6423828 C2.31199219,22.9051172 1.99664063,13.8963281 7.07941406,7.78230469 L16.9892578,17.6921484 C14.3853516,20.6439844 14.4938672,25.1419922 17.3158594,27.9639844 L32.0107031,42.6711328 C32.0108203,42.67125 32.0110547,42.6714844 32.0111719,42.6716016 C34.8301172,45.4906641 39.3278906,45.6062109 42.2833594,42.9987891 L52.1934375,52.9088672 C46.0988672,57.9828516 37.1103516,57.7157812 31.3335937,51.9390234 Z M55.9701563,49.2263672 L54.7269141,50.4696094 L44.7817969,40.524375 L46.0248047,39.28125 C46.7103516,38.5958203 47.825625,38.5957031 48.5111719,39.28125 L55.9700391,46.7401172 C56.6555859,47.4256641 56.6555859,48.5410547 55.9701563,49.2263672 Z" id="Shape" fill="#44454B"></path>
    </g>
</svg>