<?xml version="1.0" encoding="UTF-8"?>
<svg width="60px" height="60px" viewBox="0 0 60 60" version="1.1" xmlns="http://www.w3.org/2000/svg" xmlns:xlink="http://www.w3.org/1999/xlink">
    <!-- Generator: Sketch 63.1 (92452) - https://sketch.com -->
    <title>Icons/Bof</title>
    <desc>Created with Sketch.</desc>
    <g id="Icons/Bof" stroke="none" stroke-width="1" fill="none" fill-rule="evenodd">
        <path d="M30,0 C46.5417188,0 60,13.4582812 60,30 C60,46.5417188 46.5417188,60 30,60 C13.4582812,60 0,46.5417188 0,30 C0,13.4582812 13.4582812,0 30,0 Z M30,2.49996094 C14.8364062,2.49996094 2.49996094,14.8364062 2.49996094,30 C2.49996094,45.1635937 14.8364062,57.5000391 30,57.5000391 C45.1635937,57.5000391 57.5000391,45.1635937 57.5000391,30 C57.5000391,14.8364062 45.1635937,2.49996094 30,2.49996094 Z M43,37 C43.8284271,37 44.5,37.6715729 44.5,38.5 C44.5,39.2796961 43.9051119,39.9204487 43.14446,39.9931334 L43,40 L16,40 C15.1715729,40 14.5,39.3284271 14.5,38.5 C14.5,37.7203039 15.0948881,37.0795513 15.85554,37.0068666 L16,37 L43,37 Z M21.0000391,22.0000391 C22.3807294,22.0000391 23.5,23.1193097 23.5,24.5 C23.5,25.8806903 22.3807294,26.9999609 21.0000391,26.9999609 C19.6193488,26.9999609 18.5000781,25.8806903 18.5000781,24.5 C18.5000781,23.1193097 19.6193488,22.0000391 21.0000391,22.0000391 Z M37.9999609,22.0000391 C39.3806512,22.0000391 40.4999219,23.1193097 40.4999219,24.5 C40.4999219,25.8806903 39.3806512,26.9999609 37.9999609,26.9999609 C36.6192706,26.9999609 35.5,25.8806903 35.5,24.5 C35.5,23.1193097 36.6192706,22.0000391 37.9999609,22.0000391 Z" id="Combined-Shape" fill="#44454B"></path>
    </g>
</svg>