<?xml version="1.0" encoding="UTF-8"?>
<svg width="60px" height="60px" viewBox="0 0 60 60" version="1.1" xmlns="http://www.w3.org/2000/svg" xmlns:xlink="http://www.w3.org/1999/xlink">
    <!-- Generator: Sketch 63.1 (92452) - https://sketch.com -->
    <title>Icons/Boire</title>
    <desc>Created with Sketch.</desc>
    <g id="Icons/Boire" stroke="none" stroke-width="1" fill="none" fill-rule="evenodd">
        <g id="water" transform="translate(9.000000, -0.000000)" fill="#44454B">
            <path d="M40.0787041,0 C40.3945746,0 40.6472711,0.126984127 40.7104452,0.380952381 C40.9631417,0.571428571 41.0263158,0.888888889 41.0263158,1.20634921 L41.0263158,1.20634921 L36.6673019,54.7936508 C36.4777796,57.6507937 33.950815,60 31.0448058,60 L31.0448058,60 L10.0078258,60 C7.16499067,60 4.63802611,57.6507937 4.38532966,54.7936508 L4.38532966,54.7936508 L0.0263157895,1.20634921 C0.0263157895,0.888888889 0.152664018,0.634920635 0.34218636,0.380952381 C0.531708702,0.126984127 0.847579272,0 1.16344984,0 L1.16344984,0 Z M34.5825562,54.7301587 L6.65959776,54.7301587 C6.8491201,56.4444444 8.36529884,57.8412698 10.0709999,57.8412698 L10.0709999,57.8412698 L31.171154,57.8412698 C32.813681,57.8412698 34.3930338,56.4444444 34.5825562,54.7301587 L34.5825562,54.7301587 Z M38.8152218,2.22222222 L2.36375801,2.22222222 L6.47007542,52.5079365 L34.7720785,52.5079365 L38.8152218,2.22222222 Z M16.4474823,19 C18.2434362,19 19.9155312,19.2601626 21.3399084,19.7804878 C25.179534,21.2113821 29.5145952,21.2113821 33.6019386,19.7154472 C33.9115858,19.5853659 34.2831624,19.6504065 34.5928097,19.9105691 C34.9024569,20.1056911 35.0263158,20.495935 35.0263158,20.8861789 L35.0263158,20.8861789 L33.1684324,49.9593496 C33.1684324,50.5447154 32.6729969,51 32.1156319,51 L32.1156319,51 L10.1926083,51 C9.63524334,51 9.20173723,50.5447154 9.13980778,49.9593496 L9.13980778,49.9593496 L7.03420665,21.8617886 C6.97227721,21.3414634 7.28192443,20.8861789 7.71543055,20.6910569 C7.90121888,20.6260163 11.9885623,19 16.4474823,19 Z M16.5094117,21.2113821 C13.5367984,21.2113821 10.6261145,22.0569106 9.32559612,22.5121951 L9.32559612,22.5121951 L11.1834795,48.6585366 L31.1247608,48.6585366 L32.7968558,22.3170732 C28.7095124,23.4227642 24.4363807,23.2926829 20.6586846,21.8617886 C19.4820251,21.4715447 18.0576479,21.2113821 16.5094117,21.2113821 Z" id="Combined-Shape"></path>
        </g>
    </g>
</svg>