<?xml version="1.0" encoding="UTF-8"?>
<svg width="60px" height="60px" viewBox="0 0 60 60" version="1.1" xmlns="http://www.w3.org/2000/svg" xmlns:xlink="http://www.w3.org/1999/xlink">
    <!-- Generator: Sketch 63.1 (92452) - https://sketch.com -->
    <title>Icons/Compréhension</title>
    <desc>Created with Sketch.</desc>
    <g id="Icons/Compréhension" stroke="none" stroke-width="1" fill="none" fill-rule="evenodd">
        <path d="M41.8741352,2.22011719 C45.4503462,3.70054688 48.6574165,5.84496094 51.4061665,8.59371094 C54.1550337,11.3424609 56.2994477,14.5495313 57.7797602,18.1257422 C59.3145649,21.8335547 60.060229,25.7667188 59.9961274,29.8160156 C59.8736665,37.5486328 56.7519087,44.8071094 51.2060102,50.2542188 C45.6719477,55.6897266 38.3772602,58.6814063 30.6592915,58.6812891 L30.6131196,58.6812891 L30.6131196,58.6812891 C26.1215571,58.6742578 21.657768,57.6264844 17.6528852,55.6453125 L5.66542428,59.7643359 C5.20440865,59.9227734 4.73190865,60 4.2645649,60 C3.15433053,60 2.07433053,59.5638281 1.25542428,58.7446875 C0.0918695903,57.5811328 -0.298950722,55.8912891 0.235893028,54.3346875 L4.35491647,42.3472266 C2.37374459,38.3424609 1.32597115,33.8786719 1.3189399,29.3871094 C1.30698678,21.6525 4.29960397,14.3389453 9.74577584,8.79410156 C15.192768,3.24820313 22.4512446,0.1265625 30.1838618,0.0038671875 C34.2351508,-0.061171875 38.1663227,0.6853125 41.8741352,2.22011719 Z M30.2403462,3.56097656 C16.2329243,3.78304688 4.85460397,15.3662109 4.87640084,29.3816016 C4.88296334,33.5591016 5.91292428,37.7075391 7.85495553,41.3784375 C8.0848774,41.8129688 8.12460397,42.3233203 7.9648774,42.7882031 L3.60011178,55.490625 C3.47366647,55.8584766 3.65272897,56.1114844 3.77085397,56.229375 C3.88886178,56.3473828 4.14151803,56.5264453 4.50960397,56.4001172 L17.2120258,52.0353516 C17.3998774,51.9708984 17.595229,51.9387891 17.7899946,51.9387891 C18.077104,51.9387891 18.3629243,52.0082813 18.6217915,52.1452734 C22.2929243,54.0874219 26.4413618,55.1175 30.6187446,55.1238281 C44.6285102,55.1464453 56.2174165,43.7671875 56.4393696,29.7596484 C56.5510493,22.7121094 53.870268,16.0885547 48.890854,11.1091406 C43.9114399,6.12984375 37.2898774,3.44953125 30.2403462,3.56097656 Z M29.0519531,42.5095313 C30.0491016,42.5095313 30.7875,43.3244531 30.830625,44.2882031 C30.8736328,45.2487891 29.9823047,46.066875 29.0519531,46.066875 C28.0548047,46.066875 27.3164062,45.2518359 27.2732812,44.2882031 C27.2302734,43.3276172 28.1216016,42.5095313 29.0519531,42.5095313 Z M29.0519531,14.9617969 C33.9315234,14.9617969 37.9013672,18.9316406 37.9013672,23.8112109 C37.9013672,28.0817578 34.8605859,31.6553906 30.830625,32.4809766 L30.830625,32.4809766 L30.830625,38.1363281 C30.830625,39.1188281 30.0342187,39.9151172 29.0519531,39.9151172 C28.0696875,39.9151172 27.2732812,39.1187109 27.2732812,38.1364453 L27.2732812,38.1364453 L27.2732812,30.8819531 C27.2732812,29.8996875 28.0696875,29.1032813 29.0519531,29.1032813 C31.9699219,29.1032813 34.3440234,26.7291797 34.3440234,23.8112109 C34.3440234,20.8932422 31.9699219,18.5191406 29.0519531,18.5191406 C26.1339844,18.5191406 23.7598828,20.8932422 23.7598828,23.8112109 C23.7598828,24.7934766 22.9634766,25.5898828 21.9812109,25.5898828 C20.9989453,25.5898828 20.2025391,24.7934766 20.2025391,23.8112109 C20.2025391,18.9316406 24.1723828,14.9617969 29.0519531,14.9617969 Z" id="Combined-Shape" fill="#44454B"></path>
    </g>
</svg>