<?xml version="1.0" encoding="UTF-8"?>
<svg width="60px" height="60px" viewBox="0 0 60 60" version="1.1" xmlns="http://www.w3.org/2000/svg" xmlns:xlink="http://www.w3.org/1999/xlink">
    <!-- Generator: Sketch 63.1 (92452) - https://sketch.com -->
    <title>Icons/Content</title>
    <desc>Created with Sketch.</desc>
    <g id="Icons/Content" stroke="none" stroke-width="1" fill="none" fill-rule="evenodd">
        <path d="M30,0 C46.5417188,0 60,13.4582812 60,30 C60,46.5417188 46.5417188,60 30,60 C13.4582812,60 0,46.5417188 0,30 C0,13.4582812 13.4582812,0 30,0 Z M30,2.49996094 C14.8364062,2.49996094 2.49996094,14.8364062 2.49996094,30 C2.49996094,45.1635937 14.8364062,57.5000391 30,57.5000391 C45.1635937,57.5000391 57.5000391,45.1635937 57.5000391,30 C57.5000391,14.8364062 45.1635937,2.49996094 30,2.49996094 Z M43.75125,35.5 C44.0124609,35.5 44.2749609,35.5817969 44.5007813,35.7501953 C45.0525,36.1639844 45.1648828,36.9477344 44.7498047,37.5007422 C44.5812891,37.7241016 40.5041016,42.9988281 30,43 L29.9963672,43 C19.4946094,43 15.4187109,37.7241016 15.2503125,37.4994531 C14.8376953,36.9500781 14.9487891,36.175 15.4957031,35.75875 C16.0426172,35.3436719 16.82625,35.4499609 17.2449609,35.993125 L17.2690537,36.0235981 C17.6147238,36.4518315 21.1270161,40.4999219 29.9964844,40.4999219 L30,40.4999219 C39.1674609,40.49875 42.6134766,36.1761719 42.7502344,35.9992188 C42.995625,35.6720313 43.3703906,35.5 43.75125,35.5 Z M21.0000391,22.0000391 C22.3807294,22.0000391 23.5,23.1193097 23.5,24.5 C23.5,25.8806903 22.3807294,26.9999609 21.0000391,26.9999609 C19.6193488,26.9999609 18.5000781,25.8806903 18.5000781,24.5 C18.5000781,23.1193097 19.6193488,22.0000391 21.0000391,22.0000391 Z M37.9999609,22.0000391 C39.3806512,22.0000391 40.4999219,23.1193097 40.4999219,24.5 C40.4999219,25.8806903 39.3806512,26.9999609 37.9999609,26.9999609 C36.6192706,26.9999609 35.5,25.8806903 35.5,24.5 C35.5,23.1193097 36.6192706,22.0000391 37.9999609,22.0000391 Z" id="Combined-Shape" fill="#44454B"></path>
    </g>
</svg>