<?xml version="1.0" encoding="UTF-8"?>
<svg width="60px" height="60px" viewBox="0 0 60 60" version="1.1" xmlns="http://www.w3.org/2000/svg" xmlns:xlink="http://www.w3.org/1999/xlink">
    <!-- Generator: Sketch 63.1 (92452) - https://sketch.com -->
    <title>Icons/Date</title>
    <desc>Created with Sketch.</desc>
    <g id="Icons/Date" stroke="none" stroke-width="1" fill="none" fill-rule="evenodd">
        <path d="M47.6953125,0 C50.6030859,0 52.96875,2.36566406 52.96875,5.2734375 L52.96875,5.2734375 L52.96875,7.03125 L54.7265625,7.03125 C57.6343359,7.03125 60,9.39691406 60,12.3046875 L60,12.3046875 L60,54.7265625 C60,57.6343359 57.6343359,60 54.7265625,60 L54.7265625,60 L5.2734375,60 C2.36566406,60 0,57.6343359 0,54.7265625 L0,54.7265625 L0,12.3046875 C0,9.39691406 2.36566406,7.03125 5.2734375,7.03125 L5.2734375,7.03125 L7.03125,7.03125 L7.03125,5.2734375 C7.03125,2.36566406 9.39691406,0 12.3046875,0 C15.2124609,0 17.578125,2.36566406 17.578125,5.2734375 L17.578125,5.2734375 L17.578125,7.03125 L24.84375,7.03125 L24.84375,5.2734375 C24.84375,2.36566406 27.2094141,0 30.1171875,0 C33.0249609,0 35.390625,2.36566406 35.390625,5.2734375 L35.390625,5.2734375 L35.390625,7.03125 L42.421875,7.03125 L42.421875,5.2734375 C42.421875,2.36566406 44.7875391,0 47.6953125,0 Z M56.484375,24.84375 L3.515625,24.84375 L3.515625,54.7265625 C3.515625,55.6958203 4.30417969,56.484375 5.2734375,56.484375 L5.2734375,56.484375 L54.7265625,56.484375 C55.6958203,56.484375 56.484375,55.6958203 56.484375,54.7265625 L56.484375,54.7265625 L56.484375,24.84375 Z M51.2109375,28.359375 C52.1817188,28.359375 52.96875,29.1464063 52.96875,30.1171875 L52.96875,30.1171875 L52.96875,51.2109375 C52.96875,52.1817188 52.1817188,52.96875 51.2109375,52.96875 L51.2109375,52.96875 L8.7890625,52.96875 C7.81828125,52.96875 7.03125,52.1817188 7.03125,51.2109375 L7.03125,51.2109375 L7.03125,30.1171875 C7.03125,29.1464063 7.81828125,28.359375 8.7890625,28.359375 L8.7890625,28.359375 Z M17.578125,42.421875 L10.546875,42.421875 L10.546875,49.453125 L17.578125,49.453125 L17.578125,42.421875 Z M28.359375,42.421875 L21.09375,42.421875 L21.09375,49.453125 L28.359375,49.453125 L28.359375,42.421875 Z M38.90625,42.421875 L31.875,42.421875 L31.875,49.453125 L38.90625,49.453125 L38.90625,42.421875 Z M49.453125,42.421875 L42.421875,42.421875 L42.421875,49.453125 L49.453125,49.453125 L49.453125,42.421875 Z M17.578125,31.875 L10.546875,31.875 L10.546875,38.90625 L17.578125,38.90625 L17.578125,31.875 Z M28.359375,31.875 L21.09375,31.875 L21.09375,38.90625 L28.359375,38.90625 L28.359375,31.875 Z M38.90625,31.875 L31.875,31.875 L31.875,38.90625 L38.90625,38.90625 L38.90625,31.875 Z M49.453125,31.875 L42.421875,31.875 L42.421875,38.90625 L49.453125,38.90625 L49.453125,31.875 Z M7.03125,10.546875 L5.2734375,10.546875 C4.30417969,10.546875 3.515625,11.3354297 3.515625,12.3046875 L3.515625,12.3046875 L3.515625,21.328125 L56.484375,21.328125 L56.484375,12.3046875 C56.484375,11.3354297 55.6958203,10.546875 54.7265625,10.546875 L54.7265625,10.546875 L52.96875,10.546875 L52.96875,12.3046875 C52.96875,15.2124609 50.6030859,17.578125 47.6953125,17.578125 C44.7875391,17.578125 42.421875,15.2124609 42.421875,12.3046875 L42.421875,12.3046875 L42.421875,10.546875 L35.390625,10.546875 L35.390625,12.3046875 C35.390625,15.2124609 33.0249609,17.578125 30.1171875,17.578125 C27.2094141,17.578125 24.84375,15.2124609 24.84375,12.3046875 L24.84375,12.3046875 L24.84375,10.546875 L17.578125,10.546875 L17.578125,12.3046875 C17.578125,15.2124609 15.2124609,17.578125 12.3046875,17.578125 C9.39691406,17.578125 7.03125,15.2124609 7.03125,12.3046875 L7.03125,12.3046875 L7.03125,10.546875 Z M47.6953125,3.515625 C46.7260547,3.515625 45.9375,4.30417969 45.9375,5.2734375 L45.9375,5.2734375 L45.9375,12.3046875 C45.9375,13.2739453 46.7260547,14.0625 47.6953125,14.0625 C48.6645703,14.0625 49.453125,13.2739453 49.453125,12.3046875 L49.453125,12.3046875 L49.453125,5.2734375 C49.453125,4.30417969 48.6645703,3.515625 47.6953125,3.515625 Z M30.1171875,3.515625 C29.1479297,3.515625 28.359375,4.30417969 28.359375,5.2734375 L28.359375,5.2734375 L28.359375,12.3046875 C28.359375,13.2739453 29.1479297,14.0625 30.1171875,14.0625 C31.0864453,14.0625 31.875,13.2739453 31.875,12.3046875 L31.875,12.3046875 L31.875,5.2734375 C31.875,4.30417969 31.0864453,3.515625 30.1171875,3.515625 Z M12.3046875,3.515625 C11.3354297,3.515625 10.546875,4.30417969 10.546875,5.2734375 L10.546875,5.2734375 L10.546875,12.3046875 C10.546875,13.2739453 11.3354297,14.0625 12.3046875,14.0625 C13.2739453,14.0625 14.0625,13.2739453 14.0625,12.3046875 L14.0625,12.3046875 L14.0625,5.2734375 C14.0625,4.30417969 13.2739453,3.515625 12.3046875,3.515625 Z" id="Combined-Shape" fill="#44454B"></path>
    </g>
</svg>