<?xml version="1.0" encoding="UTF-8"?>
<svg width="60px" height="60px" viewBox="0 0 60 60" version="1.1" xmlns="http://www.w3.org/2000/svg" xmlns:xlink="http://www.w3.org/1999/xlink">
    <!-- Generator: Sketch 63.1 (92452) - https://sketch.com -->
    <title>Icons/Dormir</title>
    <desc>Created with Sketch.</desc>
    <g id="Icons/Dormir" stroke="none" stroke-width="1" fill="none" fill-rule="evenodd">
        <path d="M59.9025,42.8883984 C59.9949609,42.6408984 60.0275391,42.3684375 59.9424609,42.0933984 L54.9999609,26.0308594 L54.9999609,11.2109766 C54.9999609,7.76601563 52.1974219,4.96101563 48.75,4.96101563 L11.25,4.96101563 C7.80246094,4.96101563 5.00003906,7.76601563 5.00003906,11.2109766 L5.00003906,26.0309766 L0.0575390625,42.0933984 C-0.027421875,42.3658594 0.0050390625,42.6384375 0.0975,42.8883984 C0.0375,43.1534766 0,43.4259375 0,43.7109375 L0,53.7108984 L0,58.7109375 C0,59.4009375 0.560039063,59.9609766 1.25003906,59.9609766 L6.25007812,59.9609766 C6.93996094,59.9609766 7.5,59.4009375 7.5,58.7109375 L7.5,54.9609375 L52.5,54.9609375 L52.5,58.7109375 C52.5,59.4009375 53.0600391,59.9609766 53.7500391,59.9609766 L58.7500781,59.9609766 C59.4400781,59.9609766 60.0001172,59.4009375 60.0001172,58.7109375 L60.0001172,53.7108984 L60.0001172,43.7109375 C60.0001172,43.4259375 59.9625,43.1534766 59.9025,42.8883984 Z M7.5,11.2109766 C7.5,9.1434375 9.18246094,7.46097656 11.25,7.46097656 L48.75,7.46097656 C50.8175391,7.46097656 52.5,9.1434375 52.5,11.2109766 L52.5,24.9609375 L49.1025,24.9609375 L47.9375391,20.3009766 C47.5175391,18.6284766 46.02,17.4609375 44.2974609,17.4609375 L36.2499609,17.4609375 C34.1824219,17.4609375 32.4999609,19.1433984 32.4999609,21.2109375 L32.4999609,24.9609375 L27.4999219,24.9609375 L27.4999219,21.2133984 C27.4999219,19.1458594 25.8174609,17.4633984 23.7499219,17.4633984 L15.7024219,17.4633984 C13.9798828,17.4633984 12.4824609,18.6333984 12.0624609,20.3034375 L10.8975,24.9609375 L7.5,24.9609375 L7.5,11.2109766 Z M46.5350391,26.9808984 C46.2950391,27.2859375 45.9350391,27.4608984 45.5475,27.4608984 L36.2499609,27.4608984 C35.5624219,27.4608984 34.9999219,26.9008594 34.9999219,26.2108594 L34.9999219,21.2109375 C34.9999219,20.5209375 35.5624219,19.9608984 36.2499609,19.9608984 L44.2999219,19.9608984 C44.8749609,19.9608984 45.3724219,20.3484375 45.5124609,20.9058984 L46.7625,25.9059375 C46.8575391,26.2833984 46.7750391,26.6733984 46.5350391,26.9808984 Z M25.0025391,21.2109375 L25.0025391,26.1984375 C25.0025391,26.2034766 25.0000781,26.2059375 25.0000781,26.2109766 C25.0000781,26.2134375 25.0000781,26.2160156 25.0000781,26.2160156 C24.9976172,26.9035547 24.4375781,27.4610156 23.7526172,27.4610156 L14.4550781,27.4610156 C14.0650781,27.4610156 13.7075391,27.2860547 13.4675391,26.9810156 C13.2275391,26.6735156 13.1450391,26.2810547 13.2400781,25.9060547 L14.4901172,20.9060156 C14.6301562,20.3510156 15.1276172,19.9610156 15.7051172,19.9610156 L23.7526172,19.9610156 C24.4400391,19.9608984 25.0025391,20.5209375 25.0025391,21.2109375 Z M7.17246094,27.4608984 L10.935,27.4608984 C11.0675391,27.8358984 11.2400391,28.1958984 11.4924609,28.5208594 C12.2124609,29.4358594 13.29,29.9608594 14.4525,29.9608594 L23.7500391,29.9608594 C25.3775391,29.9608594 26.7525,28.9108594 27.27,27.4608984 L32.73,27.4608984 C33.2475,28.9134375 34.6224609,29.9608594 36.2499609,29.9608594 L45.5475,29.9608594 C46.71,29.9608594 47.7849609,29.4358594 48.5049609,28.5208594 C48.7575,28.1983594 48.93,27.8358984 49.0624219,27.4608984 L52.8274219,27.4608984 L56.6874609,40.0059375 C56.5425,39.9884766 56.4,39.9609375 56.25,39.9609375 L3.75,39.9609375 C3.6,39.9609375 3.4575,39.9884766 3.315,40.0059375 L7.17246094,27.4608984 Z M5.00003906,57.4608984 L2.49996094,57.4608984 L2.49996094,54.9609375 L4.99992187,54.9609375 L4.99992187,57.4608984 L5.00003906,57.4608984 Z M57.5000391,57.4608984 L55.0000781,57.4608984 L55.0000781,54.9609375 L57.5000391,54.9609375 L57.5000391,57.4608984 L57.5000391,57.4608984 Z M57.5000391,52.4609766 L2.49996094,52.4609766 L2.49996094,43.7109375 C2.49996094,43.0209375 3.06246094,42.4608984 3.75,42.4608984 L56.25,42.4608984 C56.9375391,42.4608984 57.5000391,43.0209375 57.5000391,43.7109375 L57.5000391,52.4609766 Z" id="Shape" fill="#44454B"></path>
    </g>
</svg>