<?xml version="1.0" encoding="UTF-8"?>
<svg width="60px" height="60px" viewBox="0 0 60 60" version="1.1" xmlns="http://www.w3.org/2000/svg" xmlns:xlink="http://www.w3.org/1999/xlink">
    <!-- Generator: Sketch 63.1 (92452) - https://sketch.com -->
    <title>Icons/Douche</title>
    <desc>Created with Sketch.</desc>
    <g id="Icons/Douche" stroke="none" stroke-width="1" fill="none" fill-rule="evenodd">
        <path d="M8.86148913,57.8638676 C9.05870114,57.8237315 9.26285019,57.8410743 9.45015192,57.9134183 C9.57105573,57.9733748 9.68403142,58.0486919 9.78511493,58.1378831 C9.87678376,58.2350027 9.94912791,58.3484739 9.99818317,58.4728463 C10.1602141,58.8529003 10.0754823,59.2929109 9.78412397,59.5857558 C9.49276562,59.8786007 9.05275505,59.96581 8.67220537,59.8062566 C8.29116008,59.6462078 8.04489294,59.2716041 8.04984808,58.858351 C8.04637949,58.7250595 8.07412791,58.5922635 8.13111129,58.4718552 C8.18264406,58.3489693 8.2544926,58.2354982 8.34417941,58.1368922 C8.39224372,58.0932875 8.44278541,58.052656 8.49530926,58.0149973 C8.55477015,57.9778343 8.61621294,57.9441398 8.67914241,57.9134183 C8.7386033,57.8926071 8.79955074,57.8762552 8.86148913,57.8638676 Z M24.9159289,57.9144094 C25.0992667,57.8425608 25.2999471,57.8252181 25.4931951,57.8648586 C25.5590975,57.8757597 25.624009,57.8926071 25.6869384,57.9144094 C25.7473904,57.9431488 25.8053647,57.9768433 25.859375,58.0159884 C25.9178449,58.0516649 25.9718552,58.0927921 26.0219014,58.1388742 C26.1115883,58.2374802 26.1834369,58.3509514 26.2349696,58.4738372 C26.3970006,58.8514138 26.3127643,59.2894425 26.0219014,59.5798097 C25.7315341,59.8706726 25.2935056,59.9549088 24.9159289,59.792878 C24.793043,59.7413452 24.6795719,59.6694965 24.5809659,59.5798097 C24.2905986,59.2894425 24.2058668,58.8514138 24.3678978,58.4738372 C24.4169529,58.3494648 24.489297,58.2359937 24.5809659,58.1388742 C24.6820494,58.0496829 24.7945296,57.9743658 24.9159289,57.9144094 Z M16.4625726,58.1378831 C16.8693842,57.7622886 17.4966966,57.7622886 17.9035082,58.1378831 C17.9931951,58.2364891 18.0650436,58.3499604 18.1165764,58.4728463 C18.2786074,58.8504228 18.194371,59.2884514 17.9035082,59.5788188 C17.6131409,59.8696815 17.1751123,59.9539178 16.7975356,59.7918869 C16.6731634,59.7428316 16.5596921,59.6704876 16.4625726,59.5788188 C16.1722054,59.2884514 16.0874736,58.8504228 16.2495045,58.4728463 C16.2985597,58.3484739 16.3709038,58.2350027 16.4625726,58.1378831 Z M32.6993591,58.1378831 C33.1061707,57.7622886 33.7334831,57.7622886 34.1402946,58.1378831 C34.2299816,58.2364891 34.3018301,58.3499604 34.3533629,58.4728463 C34.4098507,58.5932545 34.4375991,58.7250595 34.4346261,58.858351 C34.4380945,59.1977735 34.2696222,59.5163848 33.9871829,59.7046776 C33.7047436,59.8929704 33.3464918,59.9256738 33.0343221,59.7918869 C32.9114363,59.7403541 32.7979651,59.6685056 32.6993591,59.5788188 C32.5085888,59.3880483 32.4025503,59.1284025 32.4050278,58.858351 C32.4015592,58.7250595 32.4293076,58.5932545 32.486291,58.4728463 C32.5353461,58.3484739 32.6076903,58.2350027 32.6993591,58.1378831 Z M13.1238438,52.769556 C13.6842627,52.769556 14.138643,53.2239363 14.138643,53.7843552 L14.138643,53.7843552 L14.138643,56.8287526 C14.138643,57.3891715 13.6842627,57.8435518 13.1238438,57.8435518 C12.5634249,57.8435518 12.1090447,57.3891715 12.1090447,56.8287526 L12.1090447,56.8287526 L12.1090447,53.7843552 C12.1090447,53.2239363 12.5634249,52.769556 13.1238438,52.769556 Z M21.2422371,52.769556 C21.802656,52.769556 22.2570362,53.2239363 22.2570362,53.7843552 L22.2570362,53.7843552 L22.2570362,56.8287526 C22.2570362,57.3891715 21.802656,57.8435518 21.2422371,57.8435518 C20.6818182,57.8435518 20.2274379,57.3891715 20.2274379,56.8287526 L20.2274379,56.8287526 L20.2274379,53.7843552 C20.2274379,53.2239363 20.6818182,52.769556 21.2422371,52.769556 Z M29.3606303,52.769556 C29.9210492,52.769556 30.3754295,53.2239363 30.3754295,53.7843552 L30.3754295,53.7843552 L30.3754295,56.8287526 C30.3754295,57.3891715 29.9210492,57.8435518 29.3606303,57.8435518 C28.8002114,57.8435518 28.3458312,57.3891715 28.3458312,56.8287526 L28.3458312,56.8287526 L28.3458312,53.7843552 C28.3458312,53.2239363 28.8002114,52.769556 29.3606303,52.769556 Z M37.4790236,52.769556 C38.0394425,52.769556 38.4938227,53.2239363 38.4938227,53.7843552 L38.4938227,53.7843552 L38.4938227,56.8287526 C38.4938227,57.3891715 38.0394425,57.8435518 37.4790236,57.8435518 C36.9186047,57.8435518 36.4642244,57.3891715 36.4642244,56.8287526 L36.4642244,56.8287526 L36.4642244,53.7843552 C36.4642244,53.2239363 36.9186047,52.769556 37.4790236,52.769556 Z M9.06464723,47.6955603 C9.62506613,47.6955603 10.0794464,48.1499405 10.0794464,48.7103594 L10.0794464,48.7103594 L10.0794464,54.7991543 C10.0794464,55.3595732 9.62506613,55.8139535 9.06464723,55.8139535 C8.50422833,55.8139535 8.04984808,55.3595732 8.04984808,54.7991543 L8.04984808,54.7991543 L8.04984808,48.7103594 C8.04984808,48.1499405 8.50422833,47.6955603 9.06464723,47.6955603 Z M17.1830405,47.6955603 C17.7434594,47.6955603 18.1978396,48.1499405 18.1978396,48.7103594 L18.1978396,48.7103594 L18.1978396,54.7991543 C18.1978396,55.3595732 17.7434594,55.8139535 17.1830405,55.8139535 C16.6226216,55.8139535 16.1682413,55.3595732 16.1682413,54.7991543 L16.1682413,54.7991543 L16.1682413,48.7103594 C16.1682413,48.1499405 16.6226216,47.6955603 17.1830405,47.6955603 Z M25.3014337,47.6955603 C25.8618526,47.6955603 26.3162329,48.1499405 26.3162329,48.7103594 L26.3162329,48.7103594 L26.3162329,54.7991543 C26.3162329,55.3595732 25.8618526,55.8139535 25.3014337,55.8139535 C24.7410148,55.8139535 24.2866345,55.3595732 24.2866345,54.7991543 L24.2866345,54.7991543 L24.2866345,48.7103594 C24.2866345,48.1499405 24.7410148,47.6955603 25.3014337,47.6955603 Z M33.4198269,47.6955603 C33.9802458,47.6955603 34.4346261,48.1499405 34.4346261,48.7103594 L34.4346261,48.7103594 L34.4346261,54.7991543 C34.4346261,55.3595732 33.9802458,55.8139535 33.4198269,55.8139535 C32.859408,55.8139535 32.4050278,55.3595732 32.4050278,54.7991543 L32.4050278,54.7991543 L32.4050278,48.7103594 C32.4050278,48.1499405 32.859408,47.6955603 33.4198269,47.6955603 Z M13.1238438,42.6215645 C13.6842627,42.6215645 14.138643,43.0759447 14.138643,43.6363636 L14.138643,43.6363636 L14.138643,49.7251586 C14.138643,50.2855775 13.6842627,50.7399577 13.1238438,50.7399577 C12.5634249,50.7399577 12.1090447,50.2855775 12.1090447,49.7251586 L12.1090447,49.7251586 L12.1090447,43.6363636 C12.1090447,43.0759447 12.5634249,42.6215645 13.1238438,42.6215645 Z M21.2422371,42.6215645 C21.802656,42.6215645 22.2570362,43.0759447 22.2570362,43.6363636 L22.2570362,43.6363636 L22.2570362,49.7251586 C22.2570362,50.2855775 21.802656,50.7399577 21.2422371,50.7399577 C20.6818182,50.7399577 20.2274379,50.2855775 20.2274379,49.7251586 L20.2274379,49.7251586 L20.2274379,43.6363636 C20.2274379,43.0759447 20.6818182,42.6215645 21.2422371,42.6215645 Z M29.3606303,42.6215645 C29.9210492,42.6215645 30.3754295,43.0759447 30.3754295,43.6363636 L30.3754295,43.6363636 L30.3754295,49.7251586 C30.3754295,50.2855775 29.9210492,50.7399577 29.3606303,50.7399577 C28.8002114,50.7399577 28.3458312,50.2855775 28.3458312,49.7251586 L28.3458312,49.7251586 L28.3458312,43.6363636 C28.3458312,43.0759447 28.8002114,42.6215645 29.3606303,42.6215645 Z M37.4790236,42.6215645 C38.0394425,42.6215645 38.4938227,43.0759447 38.4938227,43.6363636 L38.4938227,43.6363636 L38.4938227,49.7251586 C38.4938227,50.2855775 38.0394425,50.7399577 37.4790236,50.7399577 C36.9186047,50.7399577 36.4642244,50.2855775 36.4642244,49.7251586 L36.4642244,49.7251586 L36.4642244,43.6363636 C36.4642244,43.0759447 36.9186047,42.6215645 37.4790236,42.6215645 Z M9.06464723,42.6215645 C9.62506613,42.6215645 10.0794464,43.0759447 10.0794464,43.6363636 L10.0794464,43.6363636 L10.0794464,44.6511628 C10.0794464,45.2115817 9.62506613,45.6659619 9.06464723,45.6659619 C8.50422833,45.6659619 8.04984808,45.2115817 8.04984808,44.6511628 L8.04984808,44.6511628 L8.04984808,43.6363636 C8.04984808,43.0759447 8.50422833,42.6215645 9.06464723,42.6215645 Z M17.1830405,42.6215645 C17.7434594,42.6215645 18.1978396,43.0759447 18.1978396,43.6363636 L18.1978396,43.6363636 L18.1978396,44.6511628 C18.1978396,45.2115817 17.7434594,45.6659619 17.1830405,45.6659619 C16.6226216,45.6659619 16.1682413,45.2115817 16.1682413,44.6511628 L16.1682413,44.6511628 L16.1682413,43.6363636 C16.1682413,43.0759447 16.6226216,42.6215645 17.1830405,42.6215645 Z M25.3014337,42.6215645 C25.8618526,42.6215645 26.3162329,43.0759447 26.3162329,43.6363636 L26.3162329,43.6363636 L26.3162329,44.6511628 C26.3162329,45.2115817 25.8618526,45.6659619 25.3014337,45.6659619 C24.7410148,45.6659619 24.2866345,45.2115817 24.2866345,44.6511628 L24.2866345,44.6511628 L24.2866345,43.6363636 C24.2866345,43.0759447 24.7410148,42.6215645 25.3014337,42.6215645 Z M33.4198269,42.6215645 C33.9802458,42.6215645 34.4346261,43.0759447 34.4346261,43.6363636 L34.4346261,43.6363636 L34.4346261,44.6511628 C34.4346261,45.2115817 33.9802458,45.6659619 33.4198269,45.6659619 C32.859408,45.6659619 32.4050278,45.2115817 32.4050278,44.6511628 L32.4050278,44.6511628 L32.4050278,43.6363636 C32.4050278,43.0759447 32.859408,42.6215645 33.4198269,42.6215645 Z M57.7750066,0 C58.3354255,0 58.7898058,0.454380254 58.7898058,1.01479915 L58.7898058,1.01479915 L58.7898058,25.3699789 C58.7898058,25.9303978 58.3354255,26.384778 57.7750066,26.384778 C53.38382,26.384778 46.6122159,22.8978925 46.6122159,18.2663848 L46.6122159,18.2663848 L46.6122159,15.2219873 L26.3162329,15.2219873 L26.3162329,19.0428449 C27.32905,19.9416953 28.0123546,21.1532108 28.2586219,22.4851347 C34.397463,23.4057875 39.0636562,28.4822608 39.4660082,34.6765989 C40.8786998,35.1498084 41.7389006,36.5778608 41.4975885,38.0480311 C41.2557809,39.5182016 39.9833179,40.5959302 38.4938227,40.5919771 L38.4938227,40.5919771 L8.04984808,40.5919771 C6.56035277,40.5959302 5.28788977,39.5182016 5.04608216,38.0480311 C4.80477015,36.5778608 5.66497099,35.1498084 7.07766249,34.6765989 C7.4800145,28.4822608 12.1462078,23.4057875 18.2850489,22.4851347 C18.5313161,21.1532108 19.2146208,19.9416953 20.2274379,19.0428449 L20.2274379,19.0428449 L20.2274379,14.2071882 C20.2309064,11.4060849 22.5003304,9.13666097 25.3014337,9.13319239 L25.3014337,9.13319239 L46.6122159,9.13319239 L46.6122159,8.11839323 C46.6122159,3.48688554 53.38382,0 57.7750066,0 Z M38.4938227,36.5327696 L8.04984808,36.5327696 C7.48942918,36.5327696 7.03504892,36.9871498 7.03504892,37.5475687 C7.03504892,38.1079876 7.48942918,38.5623679 8.04984808,38.5623679 L8.04984808,38.5623679 L38.4938227,38.5623679 C39.0542416,38.5623679 39.5086219,38.1079876 39.5086219,37.5475687 C39.5086219,36.9871498 39.0542416,36.5327696 38.4938227,36.5327696 L38.4938227,36.5327696 Z M26.3162329,24.3551797 L20.2274379,24.3551797 C14.4582452,24.3621169 9.64191332,28.7582585 9.11023391,34.5031712 L9.11023391,34.5031712 L37.4334369,34.5031712 C36.9017575,28.7582585 32.0854255,24.3621169 26.3162329,24.3551797 L26.3162329,24.3551797 Z M56.7602075,2.10144685 C53.3218816,2.56325975 48.6418142,5.17557476 48.6418142,8.11839323 L48.6418142,8.11839323 L48.6418142,18.2663848 C48.6418142,21.2092033 53.3218816,23.8215183 56.7602075,24.2833312 L56.7602075,24.2833312 Z M24.2866345,20.2959831 L22.2570362,20.2959831 C21.5261628,20.2959831 20.7531712,21.2954215 20.4102801,22.3255814 L20.4102801,22.3255814 L26.1333905,22.3255814 C25.7904995,21.2954215 25.020481,20.2959831 24.2866345,20.2959831 L24.2866345,20.2959831 Z M46.6122159,11.1627907 L25.3014337,11.1627907 C23.620177,11.1627907 22.2570362,12.5259316 22.2570362,14.2071882 L22.2570362,14.2071882 L22.2570362,18.2663848 L24.2866345,18.2663848 L24.2866345,14.2071882 C24.2866345,13.6467693 24.7410148,13.192389 25.3014337,13.192389 L25.3014337,13.192389 L46.6122159,13.192389 L46.6122159,11.1627907 Z" id="Combined-Shape" fill="#44454B"></path>
    </g>
</svg>