<?xml version="1.0" encoding="UTF-8"?>
<svg width="60px" height="60px" viewBox="0 0 60 60" version="1.1" xmlns="http://www.w3.org/2000/svg" xmlns:xlink="http://www.w3.org/1999/xlink">
    <!-- Generator: Sketch 63.1 (92452) - https://sketch.com -->
    <title>Icons/Douleur</title>
    <desc>Created with Sketch.</desc>
    <g id="Icons/Douleur" stroke="none" stroke-width="1" fill="none" fill-rule="evenodd">
        <path d="M29.7896374,11.4301414 C34.3033483,10.4859617 39.0947936,11.6287742 44.4378405,14.9233836 C47.6647155,16.9138133 48.4781139,16.6945554 51.9026842,15.7717039 C52.3722545,15.6451414 52.904403,15.5018211 53.4843639,15.3535789 C53.8474108,15.2610008 54.2328405,15.3472508 54.5214733,15.5859617 C54.8101061,15.8246726 54.9672545,16.1871336 54.9441686,16.5610789 C54.6898717,20.6831492 52.763192,22.3635008 51.3563561,23.5904539 C51.0902233,23.8226023 50.8388561,24.0417429 50.6172545,24.2599461 C50.0699889,24.7974851 49.9401452,24.9249851 50.1329186,26.6782273 L50.1329186,26.6782273 L50.7008092,31.9192039 L52.0838561,31.9192039 C53.3824108,31.9192039 54.5092858,32.5071336 55.2565905,33.5745945 C55.8665514,34.4457664 56.202528,35.6163523 56.202528,36.8709617 C56.202528,39.7324461 54.4213952,42.7735789 51.120692,42.7735789 L51.120692,42.7735789 L50.468192,42.7735789 C49.9331139,45.1549461 48.8004967,47.6472898 47.1503795,50.0231492 C46.9228014,50.3509226 46.5577624,50.5267039 46.1868639,50.5267039 C45.9562389,50.5267039 45.723153,50.4587351 45.5193639,50.3172898 C44.9878014,49.948032 44.8561999,49.2178367 45.2253405,48.6862742 C46.9035827,46.2697508 47.9776061,43.7550242 48.3399499,41.441157 C48.3435827,41.4140867 48.3472155,41.3870164 48.3527233,41.360532 C48.4349889,40.8112742 48.4770592,40.2735008 48.4770592,39.7514304 L48.4770592,39.7514304 L48.4770592,34.1328758 C47.7168639,34.0435789 46.9946374,33.9596726 46.3052233,33.8796336 C38.7174499,32.9981492 34.9087389,32.5557664 25.3801061,30.0662351 C24.9359655,29.9498679 24.539403,29.8320945 24.1897155,29.7281492 C22.8010436,29.3156492 22.103778,29.1085789 20.6245202,29.5228367 C17.7871764,30.3199461 15.9267077,31.1538523 13.3522155,33.590532 L13.3522155,33.590532 L13.3522155,39.7514304 C13.3522155,46.1947508 19.5671374,54.1535398 26.6521764,56.7831101 C28.2549499,57.3791258 29.6091686,57.6565086 30.9146374,57.6565086 C32.2210436,57.6565086 33.5739733,57.3791258 35.172528,56.7835789 C36.1154186,56.4351804 37.0776452,55.9767429 38.0354186,55.4201023 C38.5951061,55.0951414 39.3122936,55.2849851 39.6374889,55.8445554 C39.9626842,56.4041258 39.7727233,57.1214304 39.213153,57.4466258 C38.1391295,58.0707664 37.0540905,58.5870945 35.9879186,58.9809617 C34.1222936,59.6760008 32.5093249,60.0002586 30.9147545,60.0002586 C29.3217077,60.0002586 27.7079186,59.6761179 25.8360827,58.9801414 C18.8671764,56.3936961 12.8367077,49.4294773 11.3565124,42.7735789 L11.3565124,42.7735789 L10.7089342,42.7735789 C7.40787954,42.7735789 5.62662954,39.7317429 5.62662954,36.8695554 C5.62662954,35.6156492 5.96225454,34.445532 6.57162954,33.5745945 C7.31846548,32.5072508 8.44452017,31.9194383 9.74237173,31.9194383 L9.74237173,31.9194383 L11.0086999,31.9194383 C11.0117467,27.5449461 11.0517077,26.1941258 11.5658092,22.724907 C11.9176061,20.3639304 13.2722936,18.273657 15.1898327,17.1326023 C16.7794811,16.1865476 18.6253014,15.9488914 20.4488561,16.4426023 C20.6079967,16.3218992 20.7710045,16.1972117 20.9386999,16.0690086 C23.1745202,14.3593601 25.9570202,12.2317039 29.7896374,11.4301414 Z M41.7383092,52.7700242 C42.0276452,52.1908836 42.7315905,51.9562742 43.3104967,52.2458445 C43.889403,52.5352976 44.1240124,53.2392429 43.8346764,53.8181492 C43.6288952,54.2297117 43.2128795,54.4688914 42.7816295,54.4688914 C42.6060827,54.4688914 42.428192,54.429282 42.2607311,54.3456101 C41.6818249,54.056157 41.4455749,53.3554929 41.735028,52.7767039 L41.735028,52.7767039 Z M30.9148717,44.1499461 C34.4751452,44.1499461 37.3715514,47.0463523 37.3715514,50.6067429 C37.3715514,52.3262351 35.9710436,53.7251023 34.2497936,53.7251023 L34.2497936,53.7251023 L27.5798327,53.7251023 C25.8584655,53.7251023 24.458192,52.3262351 24.458192,50.6067429 C24.458192,47.0464695 27.3545983,44.1499461 30.9148717,44.1499461 Z M30.9147545,46.4936961 C28.646942,46.4936961 26.8018249,48.3388133 26.8017077,50.6067429 C26.8017077,51.0266258 27.1579577,51.3813523 27.5797155,51.3813523 L27.5797155,51.3813523 L34.2496764,51.3813523 C34.6714342,51.3813523 35.0276842,51.0266258 35.0276842,50.6067429 C35.0276842,48.3388133 33.182567,46.4936961 30.9147545,46.4936961 Z M41.2288952,36.0459617 C41.8018249,35.7456101 42.5103405,35.966157 42.8110436,36.5392039 C43.1117467,37.1123679 42.8909655,37.8207664 42.3178014,38.1214695 L42.3178014,38.1214695 L39.7182311,39.4854148 L42.3178014,40.8493601 C42.8909655,41.1500633 43.1117467,41.8584617 42.8110436,42.4316258 C42.6016295,42.8308836 42.1940514,43.0591648 41.7724108,43.0591648 C41.588778,43.0591648 41.4026842,43.0159226 41.2288952,42.9246336 L41.2288952,42.9246336 L36.6516686,40.5229929 C36.2658874,40.3206101 36.0242467,39.9210008 36.0242467,39.4852976 C36.0242467,39.0497117 36.2658874,38.6501023 36.6516686,38.4476023 L36.6516686,38.4476023 Z M19.0149499,36.5397898 C19.3154186,35.9665086 20.023817,35.7456101 20.5969811,36.0460789 L20.5969811,36.0460789 L25.1776061,38.4477195 C25.5635045,38.6499851 25.8052624,39.0497117 25.8052624,39.485532 C25.8052624,39.9212351 25.5635045,40.3209617 25.1776061,40.5233445 L25.1776061,40.5233445 L20.5969811,42.9249851 C20.4233092,43.0160398 20.2372155,43.0591648 20.053817,43.0591648 C19.631942,43.0591648 19.2244811,42.8307664 19.0149499,42.4312742 C18.7144811,41.8579929 18.9354967,41.1497117 19.5086608,40.8494773 L19.5086608,40.8494773 L22.1097545,39.4856492 L19.5086608,38.1218211 C18.9354967,37.8213523 18.7144811,37.1130711 19.0149499,36.5397898 Z M11.0084655,34.2629539 L9.74225454,34.2629539 C9.20940298,34.2629539 8.80030142,34.4772898 8.49186392,34.9181492 C8.16034048,35.3918211 7.97026235,36.1029148 7.97026235,36.8693211 C7.97026235,38.3004148 8.69963735,40.4295945 10.7089342,40.4295945 L10.7089342,40.4295945 L11.0272155,40.4295945 C11.015028,40.2023679 11.0084655,39.9760789 11.0084655,39.7511961 L11.0084655,39.7511961 L11.0084655,34.2629539 Z M52.0838561,34.2629539 L50.8209264,34.2629539 L50.8209264,39.7511961 C50.8209264,39.9752586 50.8138952,40.2015476 50.8013561,40.4295945 L50.8013561,40.4295945 L51.1205749,40.4295945 C53.1295202,40.4295945 53.8586608,38.3012351 53.8586608,36.8707273 C53.8586608,36.1040867 53.6683483,35.3927586 53.3365905,34.9188523 C53.0276842,34.4775242 52.6178795,34.2629539 52.0838561,34.2629539 L52.0838561,34.2629539 Z M43.2078405,16.9181492 C32.4010436,10.2547508 26.5990905,14.6914695 22.3627624,17.9307664 C22.0164733,18.1954929 21.689403,18.4456883 21.3674889,18.6835789 C21.0514342,18.9171336 20.6392858,18.9768992 20.2697936,18.8423679 C18.5420983,18.2131883 17.205692,18.6604929 16.388778,19.1465867 C15.0697155,19.9316258 14.1335045,21.3978758 13.8844811,23.0692039 C13.4529967,25.9810789 13.3714342,27.2597117 13.3560827,30.4797898 C15.5329577,28.7559617 17.4479186,27.980532 19.9918249,27.2659226 C20.7932702,27.0415086 21.4640514,26.9520945 22.0702624,26.9520945 C23.0760827,26.9520945 23.9041295,27.1980711 24.8572155,27.4811961 L25.1217718,27.5595561 C25.389591,27.6384324 25.6687975,27.7186765 25.973778,27.798657 C35.3424499,30.2463523 39.0966686,30.682407 46.5758092,31.5511179 C47.1367858,31.6163914 47.7187389,31.6840086 48.3255358,31.754907 L48.3255358,31.754907 L47.8031139,26.932407 C47.5877233,24.9737351 47.6330749,23.9060398 48.9740514,22.5887351 C49.2452233,22.321782 49.5353795,22.0687742 49.8160436,21.8240867 C50.8839733,20.8927976 51.904442,20.0027586 52.3689733,18.0733836 C48.8869811,19.0112351 47.2416686,19.4063914 43.2078405,16.9181492 Z M3.35366079,10.0891648 C3.81702017,9.63740701 4.55881704,9.64666482 5.01080923,10.109907 L5.01080923,10.109907 L7.06053579,12.2114304 L7.88049673,11.6104929 C8.35123892,11.2656101 9.00397329,11.3196336 9.4116686,11.7371726 L9.4116686,11.7371726 L11.8598327,14.2451023 C12.311942,14.7083445 12.3030358,15.4502586 11.8399108,15.9023679 C11.6120983,16.124907 11.3166686,16.2356492 11.0214733,16.2356492 C10.7167858,16.2356492 10.4123327,16.1175242 10.1827624,15.8823289 L10.1827624,15.8823289 L8.44522329,14.1023679 L7.62491079,14.7035398 C7.15405142,15.0487742 6.50096548,14.9943992 6.09338735,14.5765086 L6.09338735,14.5765086 L3.33303579,11.7464304 C2.8810436,11.2829539 2.89030142,10.5410398 3.35366079,10.0891648 Z M11.9205358,3.48178201 C12.5396374,3.29439919 13.1941295,3.64455544 13.3816295,4.26400857 L13.3816295,4.26400857 L14.2331139,7.07756326 L15.2376452,6.92322732 C15.8147936,6.83393044 16.3693249,7.18432107 16.5377233,7.74342263 L16.5377233,7.74342263 L17.547528,11.0949851 C17.7342077,11.7146726 17.3832311,12.3683445 16.7635436,12.5551414 C16.6508092,12.5890086 16.536903,12.6052976 16.4249889,12.6052976 C15.921317,12.6052976 15.4560827,12.2781101 15.3033874,11.771157 L15.3033874,11.771157 L14.5873717,9.39447732 L13.5841295,9.54857888 C13.0072155,9.63740701 12.4535045,9.28830544 12.2845202,8.72978982 L12.2845202,8.72978982 L11.1383092,4.94287576 C10.9509264,4.32342263 11.3010827,3.66928201 11.9205358,3.48178201 Z M22.8244811,0.811078882 C23.023817,0.19525857 23.6845202,-0.141889868 24.3004577,0.0572116949 C24.9161608,0.25666482 25.2536608,0.917485132 25.0542077,1.53318826 L25.0542077,1.53318826 L24.1489342,4.32822732 L25.060653,4.77248513 C25.5853014,5.02807107 25.8418249,5.63076638 25.6624108,6.18611794 L25.6624108,6.18611794 L24.5861608,9.51787576 C24.4258483,10.0140476 23.9660045,10.3298679 23.4712389,10.3298679 C23.3518249,10.3298679 23.2304186,10.3114695 23.1107702,10.2727976 C22.4948327,10.0739304 22.1568639,9.41334451 22.3558483,8.79740701 L22.3558483,8.79740701 L23.1193249,6.43373513 L22.206903,5.98912576 C21.681903,5.73342263 21.4253795,5.13014138 21.6054967,4.57467263 L21.6054967,4.57467263 Z" id="Combined-Shape" fill="#44454B"></path>
    </g>
</svg>