<?xml version="1.0" encoding="UTF-8"?>
<svg width="60px" height="60px" viewBox="0 0 60 60" version="1.1" xmlns="http://www.w3.org/2000/svg" xmlns:xlink="http://www.w3.org/1999/xlink">
    <!-- Generator: Sketch 63.1 (92452) - https://sketch.com -->
    <title>Icons/Ecouter</title>
    <desc>Created with Sketch.</desc>
    <g id="Icons/Ecouter" stroke="none" stroke-width="1" fill="none" fill-rule="evenodd">
        <path d="M38.8710022,1.84314549e-05 C44.4923401,0.0366210938 49.7703552,2.16293332 53.7327575,5.98800656 C57.7098083,9.82772824 59.932251,14.9610901 59.9899291,20.44281 C60.0650025,27.5486755 56.4463806,34.1070557 50.3105163,37.9852295 C47.8308105,39.5526123 46.5605163,42.4040222 47.1505737,45.0805664 C47.3638916,46.0496521 47.4563599,47.0480346 47.4252319,48.0477905 C47.3291016,51.1212158 46.0565186,54.0362549 43.841858,56.2559509 C41.6395569,58.4637451 38.7007141,59.784851 35.5673217,59.9757386 C35.3022766,59.992218 35.0372314,60 34.7731018,60 C31.4076233,60 28.1671143,58.6981201 25.7794189,56.3630677 C23.1875611,53.8279724 22.1136475,50.0898743 22.6734925,45.552063 C23.7112427,37.1443177 22.7581787,30.9809876 19.3844604,24.2784118 C17.7854919,21.1010742 17.4160767,17.8408814 18.31604,14.8503113 C19.5890808,10.6214905 22.2940064,6.82388309 25.9327698,4.15695188 C29.6841431,1.40762332 34.1532898,-0.0288391406 38.8710022,1.84314549e-05 Z M38.8485717,3.51584376 C34.8971557,3.49639898 31.1489869,4.69299316 28.0110169,6.99279785 C24.9842835,9.21066281 22.7366638,12.3614502 21.6828919,15.8638001 C20.8795166,18.5330201 21.6970826,21.0534668 22.5247193,22.6977539 C27.1330261,31.8525696 26.9499206,39.6061706 26.1630248,45.9828186 C25.7363892,49.439392 26.4344788,52.0861816 28.2376099,53.8494873 C30.1039124,55.6745911 32.696228,56.6281127 35.3535462,56.4665222 C37.6277161,56.3282776 39.758606,55.3715515 41.3529968,53.7730407 C42.9345703,52.1878052 43.8432312,50.1155091 43.9109802,47.9379272 C43.9334107,47.2293091 43.8679505,46.5220642 43.7173462,45.8372497 C43.2627868,43.7745667 43.4843445,41.6487122 44.3572998,39.6885681 C45.2087402,37.776947 46.6177369,36.1601257 48.4318542,35.0134277 C53.5299682,31.7912292 56.53656,26.3580322 56.474762,20.4798889 C56.4271546,15.9466553 54.586029,11.6981507 51.2910462,8.51715094 C47.9814148,5.32241824 43.5626221,3.5462952 38.8485717,3.51584376 Z M10.8691406,24.3933105 C11.5443421,23.6961364 12.6576233,23.6787415 13.3543396,24.3539428 C16.7541504,27.6480103 18.6264037,32.0384216 18.6264037,36.7163086 C18.6264037,41.3941956 16.7541504,45.7846069 13.3547974,49.0786744 C13.0133057,49.4096374 12.5720215,49.5744323 12.1316529,49.5744323 C11.6725159,49.5744323 11.2138366,49.3954467 10.8691406,49.0397644 C10.1934814,48.3425904 10.2108764,47.2297669 10.9080505,46.5541077 C13.6184693,43.9279174 15.1107787,40.4342651 15.1107787,36.7163086 C15.1107787,32.9988098 13.6184693,29.5051575 10.9080505,26.8789673 C10.2108764,26.203308 10.1934814,25.0904846 10.8691406,24.3933105 Z M5.73165891,29.3714905 C6.40686035,28.6743164 7.51968387,28.6564636 8.2173157,29.3321228 C10.2493287,31.3014221 11.3685608,33.9239502 11.3685608,36.7163086 C11.3685608,39.5091247 10.2493287,42.1316529 8.2173157,44.1009521 C7.87582395,44.4314576 7.43453977,44.5962525 6.99417117,44.5962525 C6.53457645,44.5962525 6.07635492,44.4172669 5.73165891,44.0615845 C5.05599973,43.3644104 5.0733948,42.2515869 5.77056891,41.5759277 C7.11364746,40.2749634 7.85293582,38.5491943 7.85293582,36.7163086 C7.85293582,34.8838806 7.11364746,33.1581116 5.77056891,31.8571472 C5.0733948,31.181488 5.05599973,30.0686646 5.73165891,29.3714905 Z M0.518646211,33.0070495 C1.20758062,32.3226928 2.32040402,32.3263549 3.00476074,33.0148315 C4.92004395,34.9424743 4.92004395,38.0786133 3.00476074,40.0062561 C2.66143805,40.3518677 2.20962527,40.5249023 1.7578125,40.5249023 C1.30966184,40.5249023 0.861511172,40.355072 0.518646211,40.0140381 C-0.169830352,39.3296814 -0.173492461,38.216858 0.510864258,37.5283814 C1.06842047,36.9671631 1.06842047,36.0539245 0.510864258,35.4927063 C-0.173492461,34.8042298 -0.169830352,33.6909485 0.518646211,33.0070495 Z M38.7272644,8.32489008 C45.7150268,8.32489008 51.3999939,13.8578796 51.3999939,20.6588745 C51.3999939,21.6297913 50.6126404,22.416687 49.6417236,22.416687 C48.6712646,22.416687 47.8839111,21.6297913 47.8839111,20.6588745 C47.8839111,15.7965088 43.7763977,11.8405151 38.7272644,11.8405151 C34.3826295,11.8405151 30.7347107,14.7702026 29.8017884,18.6854554 C30.9260559,18.7275696 32.0388795,19.0081787 33.0395508,19.5195007 C35.6684876,20.8625794 37.3091126,23.7025452 37.1214294,26.5869141 C36.9369506,29.4259643 34.9855042,32.0256042 32.2654724,33.056488 C32.0603943,33.1338502 31.849823,33.170929 31.6429138,33.170929 C30.9333802,33.170929 30.2650452,32.7383423 29.9986267,32.0356751 C29.6548462,31.1279297 30.1116943,30.1130677 31.0194397,29.7688294 C32.4742126,29.2176819 33.5165405,27.8471374 33.6135865,26.3589478 C33.7110901,24.8547363 32.837677,23.3642578 31.4405823,22.6501465 C30.5026245,22.1713256 29.3321228,22.0651245 28.3090209,22.3658753 C27.7775573,22.5219727 27.2035218,22.4189759 26.7599487,22.0870971 C26.3163757,21.7552185 26.0549927,21.2333679 26.0549927,20.6794739 L26.0549927,20.6794739 L26.0549927,20.6588745 C26.0549927,13.8578796 31.7399597,8.32489008 38.7272644,8.32489008 Z" id="Combined-Shape" fill="#44454B"></path>
    </g>
</svg>