<?xml version="1.0" encoding="UTF-8"?>
<svg width="60px" height="60px" viewBox="0 0 60 60" version="1.1" xmlns="http://www.w3.org/2000/svg" xmlns:xlink="http://www.w3.org/1999/xlink">
    <!-- Generator: Sketch 63.1 (92452) - https://sketch.com -->
    <title>Icons/Fatigue</title>
    <desc>Created with Sketch.</desc>
    <g id="Icons/Fatigue" stroke="none" stroke-width="1" fill="none" fill-rule="evenodd">
        <path d="M30,0 C13.4582812,0 0,13.4582812 0,30 C0,46.5417188 13.4582812,60 30,60 C46.5417188,60 60,46.5417188 60,30 C60,13.4582812 46.5417188,0 30,0 Z M30,57.5000391 C14.8364062,57.5000391 2.49996094,45.1635937 2.49996094,30 C2.49996094,14.8364062 14.8364062,2.49996094 30,2.49996094 C45.1635937,2.49996094 57.5000391,14.8364062 57.5000391,30 C57.5000391,45.1635937 45.1635937,57.5000391 30,57.5000391 Z M23.4037378,23.5721483 C23.1841998,23.1086791 22.6543809,22.8919536 22.1801886,23.052653 L22.0719137,23.0964968 L12.5719137,27.5964968 C12.072793,27.8329223 11.8598366,28.4292003 12.0962622,28.928321 C12.3158002,29.3917901 12.8456191,29.6085156 13.3198114,29.4478163 L13.4280863,29.4039724 L22.9280863,24.9039724 C23.427207,24.6675469 23.6401634,24.0712689 23.4037378,23.5721483 Z M22.25,37.75 C26.8056609,35.3936237 32.2131753,35.3565877 36.8006849,37.6503424 L36.8006849,37.6503424 L40.7111456,39.6055728 C41.0499296,39.7749648 41.263932,40.1212279 41.263932,40.5 C41.263932,41.0522847 40.8162168,41.5 40.263932,41.5 L40.263932,41.5 L19.109977,41.5 C18.7361346,41.5 18.3935112,41.2914764 18.2217594,40.9594229 C17.9680271,40.4688739 18.1600051,39.8655146 18.6505541,39.6117824 L18.6505541,39.6117824 Z M36.8202806,23.052653 L36.9285556,23.0964968 L46.4285556,27.5964968 C46.9276762,27.8329223 47.1406326,28.4292003 46.9042071,28.928321 C46.684669,29.3917901 46.1548501,29.6085156 45.6806578,29.4478163 L45.5723829,29.4039724 L36.0723829,24.9039724 C35.5732622,24.6675469 35.3603058,24.0712689 35.5967314,23.5721483 C35.8162694,23.1086791 36.3460883,22.8919536 36.8202806,23.052653 Z" id="Combined-Shape-Copy" fill="#44454B"></path>
    </g>
</svg>