<?xml version="1.0" encoding="UTF-8"?>
<svg width="60px" height="60px" viewBox="0 0 60 60" version="1.1" xmlns="http://www.w3.org/2000/svg" xmlns:xlink="http://www.w3.org/1999/xlink">
    <!-- Generator: Sketch 63.1 (92452) - https://sketch.com -->
    <title>Icons/Heure</title>
    <desc>Created with Sketch.</desc>
    <g id="Icons/Heure" stroke="none" stroke-width="1" fill="none" fill-rule="evenodd">
        <path d="M30,0 C38.0132812,0 45.5470313,3.12046875 51.2132812,8.78671875 C56.8795312,14.4529688 60,21.9867188 60,30 C60,38.0132812 56.8795312,45.5470313 51.2131641,51.2132812 C45.5469141,56.8794141 38.0132812,60 30,60 C21.9866016,60 14.4529688,56.8794141 8.78671875,51.2132812 C3.12058594,45.5470313 0,38.0133984 0,30 C0,21.9866016 3.12058594,14.4529688 8.78671875,8.78671875 C14.4529688,3.12046875 21.9866016,0 30,0 Z M30,3.53859375 C15.4091016,3.53859375 3.53859375,15.4091016 3.53859375,30 C3.53859375,44.5908984 15.4091016,56.4614062 30,56.4614062 C44.5908984,56.4614062 56.4612891,44.5908984 56.4612891,29.9998828 C56.4612891,15.4091016 44.5907812,3.53859375 30,3.53859375 Z M30,6.99855469 C42.6830859,6.99855469 53.0013281,17.3169141 53.0013281,29.9998828 C53.0013281,42.6829688 42.6829687,53.0013281 30,53.0013281 C17.3169141,53.0013281 6.99855469,42.6829688 6.99855469,29.9998828 C6.99855469,17.3169141 17.3169141,6.99855469 30,6.99855469 Z M31.7690625,10.6416797 L31.7690625,13.1591016 C31.7690625,14.1362109 30.976875,14.9283984 29.9997656,14.9283984 C29.0226562,14.9283984 28.2304687,14.1362109 28.2304687,13.1591016 L28.2304687,13.1591016 L28.2304687,10.6416797 C24.1967578,11.0073047 20.5148437,12.6097266 17.5685156,15.0665625 L17.5685156,15.0665625 L19.3425,16.8405469 C20.0334375,17.5316016 20.0334375,18.6519141 19.3425,19.3427344 C18.9971484,19.6882031 18.5442187,19.8610547 18.0915234,19.8610547 C17.6388281,19.8610547 17.1860156,19.6882031 16.8405469,19.3427344 L16.8405469,19.3427344 L15.0665625,17.56875 C12.6097266,20.5151953 11.0073047,24.196875 10.6416797,28.2305859 L10.6416797,28.2305859 L13.1592187,28.2305859 C14.1363281,28.2305859 14.9285156,29.0227734 14.9285156,29.9998828 C14.9285156,30.9769922 14.1363281,31.7691797 13.1592187,31.7691797 L13.1592187,31.7691797 L10.6416797,31.7691797 C11.0073047,35.8030078 12.6097266,39.4848047 15.0665625,42.4311328 L15.0665625,42.4311328 L16.8405469,40.6571484 C17.5316016,39.9663281 18.6519141,39.9663281 19.3427344,40.6571484 C20.0336719,41.3482031 20.0336719,42.4685156 19.3427344,43.1593359 L19.3427344,43.1593359 L17.56875,44.9333203 C20.5151953,47.3901562 24.1969922,48.9925781 28.2307031,49.3582031 L28.2307031,49.3582031 L28.2307031,46.8407812 C28.2307031,45.8636719 29.0228906,45.0714844 30,45.0714844 C30.9771094,45.0714844 31.7692969,45.8636719 31.7692969,46.8407812 L31.7692969,46.8407812 L31.7692969,49.3582031 C35.8028906,48.9925781 39.4848047,47.3901562 42.4311328,44.9333203 L42.4311328,44.9333203 L40.6572656,43.1593359 C39.9663281,42.4681641 39.9660937,41.3479687 40.6572656,40.6571484 C41.3484375,39.9663281 42.46875,39.9660937 43.1594531,40.6571484 L43.1594531,40.6571484 L44.9333203,42.4311328 C47.3901562,39.4846875 48.9925781,35.8028906 49.3578516,31.7691797 L49.3578516,31.7691797 L46.8404297,31.7691797 C45.8633203,31.7691797 45.0710156,30.976875 45.0710156,29.9997656 C45.0710156,29.0226562 45.8632031,28.2304687 46.8403125,28.2304687 L46.8403125,28.2304687 L49.3578516,28.2304687 C48.9919922,24.1969922 47.3896875,20.5150781 44.9328516,17.56875 L44.9328516,17.56875 L43.1589844,19.3427344 C42.8136328,19.6882031 42.3607031,19.8610547 41.9080078,19.8610547 C41.4553125,19.8610547 41.0025,19.6883203 40.6570312,19.3427344 C39.9660937,18.6516797 39.9660937,17.5314844 40.6570312,16.8405469 L40.6570312,16.8405469 L42.4308984,15.0665625 C39.4845703,12.6097266 35.8027734,11.0073047 31.7690625,10.6416797 L31.7690625,10.6416797 Z M39.6932813,28.2304687 C40.6703906,28.2304687 41.4624609,29.0226562 41.4624609,29.9998828 C41.4624609,30.9769922 40.6702734,31.7691797 39.6931641,31.7691797 L39.6931641,31.7691797 L30.7327734,31.7691797 L24.3969141,38.1050391 C24.0514453,38.4505078 23.5986328,38.6233594 23.1459375,38.6233594 C22.693125,38.6233594 22.2403125,38.4505078 21.8949609,38.1050391 C21.2040234,37.4141016 21.2040234,36.2937891 21.8949609,35.6028516 L21.8949609,35.6028516 L28.7490234,28.7487891 C29.0807813,28.4169141 29.5307813,28.2304687 30,28.2304687 L30,28.2304687 Z" id="Combined-Shape" fill="#44454B"></path>
    </g>
</svg>