<?xml version="1.0" encoding="UTF-8"?>
<svg width="60px" height="60px" viewBox="0 0 60 60" version="1.1" xmlns="http://www.w3.org/2000/svg" xmlns:xlink="http://www.w3.org/1999/xlink">
    <!-- Generator: Sketch 63.1 (92452) - https://sketch.com -->
    <title>Icons/Hopital</title>
    <desc>Created with Sketch.</desc>
    <g id="Icons/Hopital" stroke="none" stroke-width="1" fill="none" fill-rule="evenodd">
        <path d="M37.8261328,0 C41.0626172,0 43.6957031,2.63308594 43.6957031,5.86957031 L43.6957031,5.86957031 L43.6957031,11.7391406 L54.1304297,11.7391406 C57.3669141,11.7391406 60,14.3722266 60,17.6087109 L60,17.6087109 L60,54.1304297 C60,57.3669141 57.3669141,60 54.1304297,60 L54.1304297,60 L5.86957031,60 C2.63308594,60 0,57.3669141 0,54.1304297 L0,54.1304297 L0,17.6087109 C0,14.3722266 2.63308594,11.7391406 5.86957031,11.7391406 L5.86957031,11.7391406 L16.3042969,11.7391406 L16.3042969,5.86957031 C16.3042969,2.63308594 18.9373828,0 22.1738672,0 L22.1738672,0 Z M28.0434375,43.0434375 L20.2173047,43.0434375 L20.2173047,56.0869922 L28.0434375,56.0869922 L28.0434375,43.0434375 Z M39.7825781,43.0434375 L31.9564453,43.0434375 L31.9564453,56.0869922 L39.7825781,56.0869922 L39.7825781,43.0434375 Z M56.0869922,27.3912891 L3.91300781,27.3912891 L3.91300781,54.1304297 C3.91300781,55.2092578 4.79074219,56.0869922 5.86957031,56.0869922 L5.86957031,56.0869922 L16.3042969,56.0869922 L16.3042969,41.0869922 C16.3042969,40.0064063 17.1803906,39.1304297 18.2608594,39.1304297 L18.2608594,39.1304297 L41.7391406,39.1304297 C42.8197266,39.1304297 43.6957031,40.0065234 43.6957031,41.0869922 L43.6957031,41.0869922 L43.6957031,56.0869922 L54.1304297,56.0869922 C55.2092578,56.0869922 56.0869922,55.2092578 56.0869922,54.1304297 L56.0869922,54.1304297 L56.0869922,27.3912891 L56.0869922,27.3912891 Z M11.3087109,46.9566797 C11.9064844,46.9566797 12.3911719,47.44125 12.3911719,48.0391406 L12.3911719,48.0391406 L12.3911719,49.7871094 C12.3911719,50.3848828 11.9066016,50.8695703 11.3087109,50.8695703 L11.3087109,50.8695703 L9.56074219,50.8695703 C8.96296875,50.8695703 8.47828125,50.3848828 8.47828125,49.7871094 L8.47828125,49.7871094 L8.47828125,48.0391406 C8.47828125,47.4413672 8.96285156,46.9566797 9.56074219,46.9566797 L9.56074219,46.9566797 Z M50.4392578,46.9565625 C51.0370312,46.9565625 51.5217187,47.44125 51.5217187,48.0390234 L51.5217187,48.0390234 L51.5217187,49.7869922 C51.5217187,50.3847656 51.0371484,50.8694531 50.4392578,50.8694531 L50.4392578,50.8694531 L48.6912891,50.8694531 C48.0935156,50.8694531 47.6088281,50.3848828 47.6088281,49.7869922 L47.6088281,49.7869922 L47.6088281,48.0390234 C47.6088281,47.44125 48.0933984,46.9565625 48.6912891,46.9565625 L48.6912891,46.9565625 Z M11.3087109,39.1305469 C11.9064844,39.1305469 12.3911719,39.6151172 12.3911719,40.2130078 L12.3911719,40.2130078 L12.3911719,41.9609766 C12.3911719,42.55875 11.9066016,43.0434375 11.3087109,43.0434375 L11.3087109,43.0434375 L9.56074219,43.0434375 C8.96296875,43.0434375 8.47828125,42.55875 8.47828125,41.9609766 L8.47828125,41.9609766 L8.47828125,40.2130078 C8.47828125,39.6152344 8.96285156,39.1305469 9.56074219,39.1305469 L9.56074219,39.1305469 Z M50.4392578,39.1304297 C51.0370312,39.1304297 51.5217187,39.6151172 51.5217187,40.2128906 L51.5217187,40.2128906 L51.5217187,41.9608594 C51.5217187,42.5586328 51.0371484,43.0433203 50.4392578,43.0433203 L50.4392578,43.0433203 L48.6912891,43.0433203 C48.0935156,43.0433203 47.6088281,42.55875 47.6088281,41.9608594 L47.6088281,41.9608594 L47.6088281,40.2128906 C47.6088281,39.6151172 48.0933984,39.1304297 48.6912891,39.1304297 L48.6912891,39.1304297 Z M11.3087109,31.3045312 C11.9064844,31.3045312 12.3911719,31.7889844 12.3911719,32.3869922 L12.3911719,32.3869922 L12.3911719,34.1349609 C12.3911719,34.7327344 11.9066016,35.2174219 11.3087109,35.2174219 L11.3087109,35.2174219 L9.56074219,35.2174219 C8.96296875,35.2174219 8.47828125,34.7327344 8.47828125,34.1349609 L8.47828125,34.1349609 L8.47828125,32.3869922 C8.47828125,31.7892187 8.96285156,31.3045312 9.56074219,31.3045312 L9.56074219,31.3045312 Z M50.4392578,31.3042969 C51.0370312,31.3042969 51.5217187,31.7891016 51.5217187,32.3867578 L51.5217187,32.3867578 L51.5217187,34.1347266 C51.5217187,34.7325 51.0371484,35.2171875 50.4392578,35.2171875 L50.4392578,35.2171875 L48.6912891,35.2171875 C48.0935156,35.2171875 47.6088281,34.7326172 47.6088281,34.1347266 L47.6088281,34.1347266 L47.6088281,32.3867578 C47.6088281,31.7889844 48.0933984,31.3042969 48.6912891,31.3042969 L48.6912891,31.3042969 Z M19.1347266,31.3045312 C19.7326172,31.3045312 20.2173047,31.7889844 20.2171875,32.3869922 L20.2171875,32.3869922 L20.2171875,34.1349609 C20.2171875,34.7327344 19.7326172,35.2174219 19.1347266,35.2174219 L19.1347266,35.2174219 L17.3867578,35.2174219 C16.7889844,35.2174219 16.3042969,34.7327344 16.3042969,34.1349609 L16.3042969,34.1349609 L16.3042969,32.3869922 C16.3042969,31.7892187 16.7888672,31.3045312 17.3867578,31.3045312 L17.3867578,31.3045312 Z M26.9608594,31.3045312 C27.5586328,31.3045312 28.0433203,31.7889844 28.0433203,32.3869922 L28.0433203,32.3869922 L28.0433203,34.1349609 C28.0433203,34.7327344 27.55875,35.2174219 26.9608594,35.2174219 L26.9608594,35.2174219 L25.2128906,35.2174219 C24.6151172,35.2174219 24.1304297,34.7327344 24.1304297,34.1349609 L24.1304297,34.1349609 L24.1304297,32.3869922 C24.1304297,31.7892187 24.615,31.3045312 25.2128906,31.3045312 L25.2128906,31.3045312 Z M34.7869922,31.3045312 C35.3847656,31.3045312 35.8694531,31.7889844 35.8694531,32.3869922 L35.8694531,32.3869922 L35.8694531,34.1349609 C35.8694531,34.7327344 35.3848828,35.2174219 34.7869922,35.2174219 L34.7869922,35.2174219 L33.0390234,35.2174219 C32.44125,35.2174219 31.9565625,34.7327344 31.9565625,34.1349609 L31.9565625,34.1349609 L31.9565625,32.3869922 C31.9565625,31.7892187 32.4411328,31.3045312 33.0390234,31.3045312 L33.0390234,31.3045312 Z M42.6130078,31.3045312 C43.2107813,31.3045312 43.6954688,31.7889844 43.6954688,32.3869922 L43.6954688,32.3869922 L43.6954688,34.1349609 C43.6954688,34.7327344 43.2108984,35.2174219 42.6130078,35.2174219 L42.6130078,35.2174219 L40.8650391,35.2174219 C40.2672656,35.2174219 39.7825781,34.7327344 39.7825781,34.1349609 L39.7825781,34.1349609 L39.7825781,32.3869922 C39.7825781,31.7892187 40.2671484,31.3045312 40.8650391,31.3045312 L40.8650391,31.3045312 Z M37.8261328,3.91300781 L22.1739844,3.91300781 C21.0951562,3.91300781 20.2174219,4.79074219 20.2174219,5.86957031 L20.2174219,5.86957031 L20.2174219,23.4782813 L39.7826953,23.4782813 L39.7826953,5.86957031 C39.7826953,4.79074219 38.9049609,3.91300781 37.8261328,3.91300781 L37.8261328,3.91300781 Z M16.3042969,15.6521484 L5.86957031,15.6521484 C4.79074219,15.6521484 3.91300781,16.5298828 3.91300781,17.6087109 L3.91300781,17.6087109 L3.91300781,23.4782813 L16.3042969,23.4782813 L16.3042969,15.6521484 Z M54.1304297,15.6521484 L43.6957031,15.6521484 L43.6957031,23.4782813 L56.0869922,23.4782813 L56.0869922,17.6087109 C56.0869922,16.5298828 55.2092578,15.6521484 54.1304297,15.6521484 L54.1304297,15.6521484 Z M30,7.82601563 C31.0805859,7.82601563 31.9565625,8.70210938 31.9565625,9.78257813 L31.9565625,9.78257813 L31.9565625,11.7391406 L33.913125,11.7391406 L34.0593662,11.7445072 C35.0716629,11.8191976 35.8699219,12.6642347 35.8699219,13.6957031 C35.8699219,14.7762891 34.9938281,15.6522656 33.9133594,15.6522656 L33.9133594,15.6522656 L31.9565625,15.6522656 L31.9565625,17.6088281 C31.9565625,18.6894141 31.0804687,19.5653906 30,19.5653906 C28.9194141,19.5653906 28.0434375,18.6892969 28.0434375,17.6088281 L28.0434375,17.6088281 L28.0434375,15.6522656 L26.086875,15.6522656 C25.0062891,15.6522656 24.1303125,14.7762891 24.1303125,13.6957031 C24.1303125,12.6151172 25.0064062,11.7391406 26.086875,11.7391406 L26.086875,11.7391406 L28.0434375,11.7391406 L28.0434375,9.78257813 C28.0434375,8.70199219 28.9195312,7.82601563 30,7.82601563 Z" id="Combined-Shape" fill="#44454B"></path>
    </g>
</svg>