<?xml version="1.0" encoding="UTF-8"?>
<svg width="60px" height="60px" viewBox="0 0 60 60" version="1.1" xmlns="http://www.w3.org/2000/svg" xmlns:xlink="http://www.w3.org/1999/xlink">
    <!-- Generator: Sketch 63.1 (92452) - https://sketch.com -->
    <title>Icons/Ici</title>
    <desc>Created with Sketch.</desc>
    <g id="Icons/Ici" stroke="none" stroke-width="1" fill="none" fill-rule="evenodd">
        <path d="M29.796875,-2.13162821e-13 C41.7785937,-2.13162821e-13 51.5266016,9.74789062 51.5266016,21.7296094 C51.5266016,36.5992969 32.080625,58.4288672 31.2526953,59.3508984 C30.4764453,60.2155078 29.1187109,60.2170312 28.3410547,59.3508984 C27.513125,58.4288672 8.06714844,36.5992969 8.06714844,21.7296094 C8.06714844,9.74789062 17.8150391,-2.13162821e-13 29.796875,-2.13162821e-13 Z M29.796875,3.913125 C19.9726953,3.913125 11.9802734,11.9055469 11.9802734,21.7298437 C11.9802734,31.935 23.2523047,47.2723828 29.796875,55.0463672 C36.3430859,47.2699219 47.6134766,31.9353516 47.6134766,21.7297266 C47.6134766,11.9055469 39.6210547,3.913125 29.796875,3.913125 Z M29.796875,10.7969531 C35.8251172,10.7969531 40.7294141,15.7013672 40.7294141,21.7297266 C40.7294141,27.7580859 35.8251172,32.6625 29.796875,32.6625 C23.7686328,32.6625 18.8642187,27.7580859 18.8642187,21.7297266 C18.8642187,15.7013672 23.7685156,10.7969531 29.796875,10.7969531 Z M29.796875,14.7100781 C25.9262891,14.7100781 22.7773437,17.8590234 22.7773437,21.7297266 C22.7773437,25.6004297 25.9261719,28.749375 29.796875,28.749375 C33.6674609,28.749375 36.8164062,25.6004297 36.8164062,21.7297266 C36.8164062,17.8590234 33.6674609,14.7100781 29.796875,14.7100781 Z" id="Combined-Shape" fill="#44454B"></path>
    </g>
</svg>