<?xml version="1.0" encoding="UTF-8"?>
<svg width="60px" height="60px" viewBox="0 0 60 60" version="1.1" xmlns="http://www.w3.org/2000/svg" xmlns:xlink="http://www.w3.org/1999/xlink">
    <!-- Generator: Sketch 63.1 (92452) - https://sketch.com -->
    <title>Icons/J'aime</title>
    <desc>Created with Sketch.</desc>
    <g id="Icons/J'aime" stroke="none" stroke-width="1" fill="none" fill-rule="evenodd">
        <path d="M30,56.3807373 C29.145813,56.3807373 28.3222962,56.0712891 27.6805114,55.5091553 C25.2566529,53.3897095 22.9197693,51.3979798 20.8580017,49.6410827 L20.8474732,49.6319275 C14.8027038,44.4807129 9.58282477,40.0321655 5.95092773,35.6499939 C1.89102176,30.7510071 0,26.1060791 0,21.0317688 C0,16.101654 1.69052121,11.5533142 4.75982672,8.22399902 C7.8657532,4.85531613 12.1275329,3 16.7614746,3 C20.2249146,3 23.3967591,4.0949707 26.1886596,6.25424191 C27.5976562,7.34417719 28.874817,8.67810059 30,10.2340393 C31.1256409,8.67810059 32.4023438,7.34417719 33.8117981,6.25424191 C36.6036987,4.0949707 39.7755432,3 43.2389831,3 C47.8724671,3 52.1347045,4.85531613 55.2406311,8.22399902 C58.3099365,11.5533142 60,16.101654 60,21.0317688 C60,26.1060791 58.1094361,30.7510071 54.04953,35.6495361 C50.4176331,40.0321655 45.1982116,44.4802552 39.154358,49.631012 C37.0889283,51.3906555 34.7483825,53.3855896 32.3190307,55.5100709 C31.6777038,56.0712891 30.8537292,56.3807373 30,56.3807373 L30,56.3807373 Z M16.7614746,6.51470953 C13.1208802,6.51470953 9.77645871,7.96765137 7.34344477,10.6062012 C4.87426758,13.2845764 3.51425168,16.986969 3.51425168,21.0317688 C3.51425168,25.2994995 5.10040289,29.116333 8.65676883,33.4074096 C12.0941162,37.5552063 17.2068786,41.9122009 23.1266784,46.9572143 L23.1376648,46.9663697 C25.2072143,48.7301331 27.5532532,50.7296448 29.9949646,52.8646546 C32.4513245,50.7255248 34.8010254,48.7228089 36.8746948,46.9562988 C42.7940368,41.9112854 47.9063415,37.5552063 51.3436889,33.4074096 C54.8995971,29.116333 56.4857483,25.2994995 56.4857483,21.0317688 C56.4857483,16.986969 55.1257324,13.2845764 52.6565552,10.6062012 C50.223999,7.96765137 46.8791198,6.51470953 43.2389831,6.51470953 C40.572052,6.51470953 38.1234741,7.36248773 35.9614563,9.03424078 C34.0347291,10.5247193 32.6925659,12.4088745 31.9056702,13.7272338 C31.5010071,14.4051819 30.7887268,14.809845 30,14.809845 C29.2112732,14.809845 28.4989929,14.4051819 28.0943298,13.7272338 C27.3078919,12.4088745 25.9657288,10.5247193 24.0385437,9.03424078 C21.8765259,7.36248773 19.427948,6.51470953 16.7614746,6.51470953 Z" id="Shape" fill="#44454B"></path>
    </g>
</svg>