<?xml version="1.0" encoding="UTF-8"?>
<svg width="60px" height="60px" viewBox="0 0 60 60" version="1.1" xmlns="http://www.w3.org/2000/svg" xmlns:xlink="http://www.w3.org/1999/xlink">
    <!-- Generator: Sketch 63.1 (92452) - https://sketch.com -->
    <title>Icons/Jardin</title>
    <desc>Created with Sketch.</desc>
    <g id="Icons/Jardin" stroke="none" stroke-width="1" fill="none" fill-rule="evenodd">
        <path d="M57.9844665,22.67807 C58.2389831,21.7478943 58.3680725,20.7952881 58.3680725,19.8403931 C58.3680725,17.2901917 57.4690247,14.8187256 55.8370971,12.8819275 C54.3104554,11.0705566 52.2317505,9.82498172 49.9465943,9.34341434 C48.1787109,5.66802984 44.4923401,3.31604004 40.4425049,3.31604004 C39.0829467,3.31604004 37.7632141,3.57559207 36.5112305,4.08920285 C34.5108033,1.51657102 31.452942,0 28.202362,0 C23.5725403,0 19.5172119,3.03909305 18.130188,7.46475223 C12.4768066,7.61444086 7.91381836,12.2795105 7.83050531,18.023529 C5.26794434,20.0491334 3.75,23.177948 3.75,26.4729309 C3.75,29.3948365 4.93652344,32.1968079 7.01751703,34.2150879 C7.01751703,34.2260742 7.01797488,34.2370605 7.01843262,34.2475891 C7.11090094,37.5004577 8.67416379,40.4608154 11.3072204,42.36969 C13.9352416,44.2749023 17.2187805,44.8420716 20.3160095,43.9251709 L21.3116455,43.6303711 C23.6068725,46.2863159 26.5571595,47.9013061 29.775238,48.2821655 L29.775238,56.484375 L19.8454284,56.484375 C18.8745117,56.484375 18.0876159,57.2712708 18.0876159,58.2421875 C18.0876159,59.2131042 18.8745117,60 19.8454284,60 L43.2444763,60 C44.2149353,60 45.0022888,59.2131042 45.0022888,58.2421875 C45.0022888,57.2712708 44.2149353,56.484375 43.2444763,56.484375 L33.290863,56.484375 L33.290863,48.2286071 C35.3526306,47.938385 37.2953796,47.2041321 39.0097045,46.0597229 C40.4548645,46.7811585 42.0680237,47.1606445 43.7072754,47.1606445 C46.2341309,47.1606445 48.6804199,46.2414551 50.5961609,44.5729065 C52.3796081,43.0192566 53.604126,40.9062195 54.0724182,38.5881042 C57.6869202,36.7918396 60,33.0574036 60,28.9595032 C60,26.6802979 59.3041992,24.5173645 57.9844665,22.67807 Z M52.2583008,35.5577087 C51.4164734,35.9362793 50.824585,36.7076111 50.6758118,37.6222229 C50.1072693,41.1122132 47.1766663,43.6450195 43.7077331,43.6450195 C42.4964905,43.6450195 41.3113404,43.3369446 40.2799987,42.7546692 C39.3644714,42.2373962 38.2246399,42.3005677 37.3754883,42.9148864 C36.161499,43.793335 34.7749329,44.3852234 33.290863,44.6662903 L33.290863,34.8701477 L38.9360046,30.1016236 C39.6592712,29.4909668 39.8121643,28.4097291 39.2358398,27.6585388 C38.6206055,26.8569947 37.4684143,26.7393493 36.7053223,27.3838806 L33.290863,30.2682495 L33.290863,17.6811218 C33.290863,16.7344665 32.5634766,15.9201049 31.6181946,15.8757019 C30.6083679,15.8280945 29.775238,16.6323853 29.775238,17.6312256 L29.775238,26.1941529 L27.2415162,24.1712952 C26.461029,23.547821 25.3125,23.6975098 24.719696,24.5155335 C24.1644287,25.2822877 24.3470764,26.3589478 25.0863647,26.9494629 L29.775238,30.6930541 L29.775238,36.1857605 L24.4633484,31.698761 C23.7217712,31.0720826 22.6126099,31.1654663 21.9859314,31.9070435 C21.3597107,32.6490784 21.4530945,33.757782 22.1946716,34.3844604 L29.775238,40.7876588 L29.775238,44.7322083 C26.7329407,44.2254639 24.7077942,42.2547913 23.704834,41.0124206 C23.704834,41.0124206 23.0108643,39.725647 21.1367798,40.1078796 C20.6781006,40.2017213 19.3185424,40.5537415 19.3185424,40.5537415 C17.276001,41.1584473 15.1080322,40.7830811 13.3708191,39.5233154 C11.6281127,38.2603454 10.593567,36.085968 10.5326843,33.9335632 C10.5303955,33.8621521 10.5294799,34.0054322 10.5294799,33.9335632 L10.5294799,33.9207458 C10.5404663,33.1324768 10.2122497,32.376709 9.63043219,31.8470764 C8.12759402,30.4792786 7.265625,28.5205078 7.265625,26.4729309 C7.265625,24.1621399 8.37066656,21.9744873 10.2218627,20.6208802 C10.9556579,20.0843811 11.3763428,19.2192077 11.3470459,18.3073425 C11.3470459,14.3334961 14.7262573,10.9812927 18.6222839,10.9812927 C19.9035645,11.0298157 21.0575866,10.1710511 21.3674927,8.93280023 C22.1658326,5.74356082 24.9765014,3.515625 28.202362,3.515625 C30.5149841,3.515625 32.6852416,4.67651367 34.007721,6.62109375 C34.7579955,7.72384641 36.2246705,8.11614984 37.4198913,7.53250125 C38.3729554,7.06741336 39.3901062,6.83166504 40.4425049,6.83166504 C43.2289124,6.83166504 45.7617188,8.51577762 46.8951416,11.1218262 C47.266388,11.9760131 48.0335999,12.5779724 48.9472962,12.7313232 C52.3690795,13.30719 54.8524475,16.2963867 54.8524475,19.8399353 C54.8524475,20.5732727 54.7384643,21.3066101 54.5141602,22.0198059 C54.2459107,22.8735352 54.419403,23.8032532 54.9668884,24.5114135 C55.9597779,25.794983 56.484375,27.3330689 56.484375,28.9595032 C56.484375,31.8150329 54.8258972,34.4050598 52.2583008,35.5577087 L52.2583008,35.5577087 Z" id="Shape" fill="#44454B"></path>
    </g>
</svg>