<?xml version="1.0" encoding="UTF-8"?>
<svg width="60px" height="60px" viewBox="0 0 60 60" version="1.1" xmlns="http://www.w3.org/2000/svg" xmlns:xlink="http://www.w3.org/1999/xlink">
    <!-- Generator: Sketch 63.1 (92452) - https://sketch.com -->
    <title>Icons/Je n'aime pas</title>
    <desc>Created with Sketch.</desc>
    <g id="Icons/Je-n'aime-pas" stroke="none" stroke-width="1" fill="none" fill-rule="evenodd">
        <g id="heartbreak" transform="translate(0.000000, 3.750000)" fill="#44454B">
            <path d="M42.3046875,0.0001171875 C41.9041406,0.0001171875 41.4994922,0.013828125 41.101875,0.0406640625 C41.0899219,0.041484375 41.0785547,0.043828125 41.0667187,0.0448828125 C40.6005469,0.0856640625 40.1704687,0.310664063 39.8708203,0.67078125 C39.8634375,0.679570313 39.8553516,0.687421875 39.8482031,0.696328125 L28.6273828,14.7222656 C28.0678125,15.4217578 28.1237109,16.4300391 28.7569922,17.0633203 L38.0609766,26.3673047 L28.7569922,35.6712891 C28.4273438,36.0009375 28.2420703,36.4480078 28.2420703,36.9141797 L28.2420703,43.6601953 L24.9798047,33.8733984 L31.2428906,27.6103125 C31.929375,26.9238281 31.929375,25.8108984 31.2428906,25.1244141 L21.6665625,15.5479688 L27.8540625,5.23535156 C28.3231641,4.45253906 28.1176172,3.42679688 27.3536719,2.89242188 C27.3385547,2.881875 27.3248438,2.87027344 27.3092578,2.86007813 C24.4503516,0.988945313 21.1258594,0.0001171875 17.6953125,0.0001171875 C7.93804687,0.0001171875 0,7.88566406 0,17.5782422 C0,21.9779297 1.63347656,26.1883594 4.60253906,29.4370313 L28.6792969,55.6530469 C28.6798828,55.65375 28.6804688,55.6543359 28.6811719,55.6550391 L28.7054297,55.6814063 C28.7096484,55.6859766 28.7144531,55.6899609 28.7187891,55.6945313 C29.3971875,56.4160547 30.5501953,56.4457031 31.2590625,55.7177344 C31.2699609,55.7066016 31.2812109,55.6958203 31.2917578,55.6843359 C31.2926953,55.6832813 31.2938672,55.6824609 31.2948047,55.6814063 L55.4003906,29.4338672 C58.3665234,26.1883594 60,21.9779297 60,17.5782422 C60,7.88554687 52.0619531,0.0001171875 42.3046875,0.0001171875 Z M7.19472656,27.0621094 C4.82226562,24.4660547 3.515625,21.0979687 3.515625,17.5782422 C3.515625,9.82417969 9.8765625,3.51574219 17.6953125,3.51574219 C19.8711328,3.51574219 21.9919922,4.01425781 23.9164453,4.96511719 L17.9458594,14.9160938 C17.5307812,15.6077344 17.6398828,16.4930859 18.2102344,17.0634375 L27.5141016,26.3674219 L21.7258594,32.1557813 C21.255,32.6265234 21.0907031,33.3229688 21.3011719,33.9546094 L25.7316797,47.24625 L7.19472656,27.0621094 Z M52.8080859,27.0587109 L31.7578125,49.9795313 L31.7578125,37.6422656 L41.7897656,27.6101953 C42.47625,26.9237109 42.47625,25.8107813 41.7897656,25.1242969 L32.3554688,15.6898828 L42.0921094,3.51925781 C42.1630078,3.51820313 42.2340234,3.515625 42.3048047,3.515625 C50.1235547,3.515625 56.4844922,9.8240625 56.4844922,17.578125 C56.4844922,21.0980859 55.1778516,24.4660547 52.8080859,27.0587109 Z" id="Shape"></path>
        </g>
    </g>
</svg>