<?xml version="1.0" encoding="UTF-8"?>
<svg width="60px" height="60px" viewBox="0 0 60 60" version="1.1" xmlns="http://www.w3.org/2000/svg" xmlns:xlink="http://www.w3.org/1999/xlink">
    <!-- Generator: Sketch 63.1 (92452) - https://sketch.com -->
    <title>Icons/Maison</title>
    <desc>Created with Sketch.</desc>
    <g id="Icons/Maison" stroke="none" stroke-width="1" fill="none" fill-rule="evenodd">
        <path d="M58.327394,26.1631944 C58.3255665,26.1618239 58.3241959,26.1599964 58.3228253,26.1586257 L33.8952851,1.7319993 C32.8540753,0.690332632 31.4697551,0.116959064 29.9972587,0.116959064 C28.5247625,0.116959064 27.1404422,0.690332632 26.0987756,1.7319993 L1.68402784,26.1462902 C1.67580409,26.1545139 1.66712351,26.1631944 1.65935673,26.1714181 C-0.47880117,28.3219116 -0.475146199,31.811038 1.6698648,33.956049 C2.6498538,34.9364949 3.94371345,35.5039291 5.32757673,35.5637792 C5.38422877,35.5692618 5.44088082,35.5720029 5.49798971,35.5720029 L6.47112573,35.5720029 L6.47112573,53.5480629 C6.47112573,57.10572 9.36586257,60 12.9235198,60 L22.4803545,60 C23.4493787,60 24.2347405,59.2141813 24.2347405,58.245614 L24.2347405,44.1520468 C24.2347405,42.5287829 25.5555556,41.2084247 27.1788194,41.2084247 L32.8156981,41.2084247 C34.438962,41.2084247 35.7593202,42.5287829 35.7593202,44.1520468 L35.7593202,58.245614 C35.7593202,59.2141813 36.544682,60 37.5137062,60 L47.0705409,60 C50.628655,60 53.522935,57.10572 53.522935,53.5480629 L53.522935,35.5720029 L54.4257127,35.5720029 C55.8977522,35.5720029 57.2820724,34.9986294 58.3241959,33.9565058 C60.4714912,31.8082968 60.4724049,28.3127742 58.327394,26.1631944 L58.327394,26.1631944 Z M55.8429276,31.4756945 C55.4641813,31.8544408 54.960709,32.063231 54.4257127,32.063231 L51.768549,32.063231 C50.7995249,32.063231 50.014163,32.8485929 50.014163,33.817617 L50.014163,53.5480629 C50.014163,55.1708699 48.6938048,56.4912281 47.0705409,56.4912281 L39.2680922,56.4912281 L39.2680922,44.1520468 C39.2680922,40.5943896 36.3738122,37.6996527 32.8156981,37.6996527 L27.1788194,37.6996527 C23.6207054,37.6996527 20.7259685,40.5943896 20.7259685,44.1520468 L20.7259685,56.4912281 L12.9235198,56.4912281 C11.3007127,56.4912281 9.97989766,55.1708699 9.97989766,53.5480629 L9.97989766,33.817617 C9.97989766,32.8485929 9.19453579,32.063231 8.2255117,32.063231 L5.61403509,32.063231 C5.58662281,32.0614035 5.55966737,32.0600329 5.53179825,32.059576 C5.00913743,32.0504386 4.5189145,31.8430189 4.15158994,31.4752375 C3.37033988,30.6939876 3.37033988,29.4225146 4.15158994,28.6408077 C4.15204678,28.6408077 4.15204678,28.6403509 4.15250363,28.639894 L4.15387427,28.6385234 L28.5805007,4.21281064 C28.9587902,3.83406433 29.4618056,3.62573099 29.9972587,3.62573099 C30.5322551,3.62573099 31.0352704,3.83406433 31.4140168,4.21281064 L55.8351608,28.6334978 C55.8388158,28.6371527 55.8429276,28.6408077 55.8465826,28.6444627 C56.6237207,29.4270833 56.6223502,30.6958151 55.8429276,31.4756945 Z" id="Shape" fill="#44454B"></path>
    </g>
</svg>