<?xml version="1.0" encoding="UTF-8"?>
<svg width="60px" height="60px" viewBox="0 0 60 60" version="1.1" xmlns="http://www.w3.org/2000/svg" xmlns:xlink="http://www.w3.org/1999/xlink">
    <!-- Generator: Sketch 63.1 (92452) - https://sketch.com -->
    <title>Icons/Manger</title>
    <desc>Created with Sketch.</desc>
    <g id="Icons/Manger" stroke="none" stroke-width="1" fill="none" fill-rule="evenodd">
        <path d="M53.3444358,9.10552529 C56.9500389,9.10552529 59.8842023,12.0387549 59.8842023,15.644358 L59.8842023,15.644358 L59.8842023,31.5366537 C59.8842023,32.0530739 59.4667704,32.4705058 58.9503502,32.4705058 L58.9503502,32.4705058 L57.0826459,32.4705058 L57.0826459,48.8185214 C57.0826459,50.1063035 56.0357977,51.1531518 54.7480156,51.1531518 C53.4602335,51.1531518 52.4133852,50.1063035 52.4133852,48.8185214 L52.4133852,48.8185214 L52.4133852,10.0533852 C52.4133852,10.048716 52.4105837,10.0449805 52.4105837,10.0393774 C52.4105837,9.5229572 52.8280156,9.10552529 53.3444358,9.10552529 Z M9.45431907,9.11486381 C9.9707393,9.11486381 10.3881712,9.53229572 10.3881712,10.048716 L10.3881712,10.048716 L10.3881712,21.2568093 C10.3881712,22.9919066 9.19377432,24.442179 7.58661479,24.8596109 L7.58661479,24.8596109 L7.58661479,48.8175875 C7.58661479,50.1053696 6.53976654,51.1522179 5.25198444,51.1522179 C3.96420233,51.1522179 2.91735409,50.1053696 2.91735409,48.8175875 L2.91735409,48.8175875 L2.91735409,24.8596109 C1.31019455,24.442179 0.115797665,22.9919066 0.115797665,21.2568093 L0.115797665,21.2568093 L0.115797665,10.048716 C0.115797665,9.53229572 0.533229572,9.11486381 1.04964981,9.11486381 C1.56607004,9.11486381 1.98350195,9.53229572 1.98350195,10.048716 L1.98350195,10.048716 L1.98350195,17.5195331 L2.91735409,17.5195331 L2.91735409,10.048716 C2.91735409,9.53229572 3.33478599,9.11486381 3.85120623,9.11486381 C4.36762646,9.11486381 4.78505837,9.53229572 4.78505837,10.048716 L4.78505837,10.048716 L4.78505837,17.5195331 L5.71891051,17.5195331 L5.71891051,10.048716 C5.71891051,9.53229572 6.13634241,9.11486381 6.65276265,9.11486381 C7.16918288,9.11486381 7.58661479,9.53229572 7.58661479,10.048716 L7.58661479,10.048716 L7.58661479,17.5195331 L8.52046693,17.5195331 L8.52046693,10.048716 C8.52046693,9.53229572 8.93789883,9.11486381 9.45431907,9.11486381 Z M30.4659922,9.10365759 C42.0513619,9.10365759 51.4776654,18.5299611 51.4776654,30.1153307 C51.4776654,41.7007004 42.0513619,51.1270039 30.4659922,51.1270039 C18.8806226,51.1270039 9.45431907,41.7007004 9.45431907,30.1153307 C9.45431907,18.5299611 18.8806226,9.10365759 30.4659922,9.10365759 Z M5.71891051,24.9922179 L4.78505837,24.9922179 L4.78505837,48.8185214 C4.78505837,49.0753307 4.9951751,49.2854475 5.25198444,49.2854475 C5.50879377,49.2854475 5.71891051,49.0753307 5.71891051,48.8185214 L5.71891051,48.8185214 L5.71891051,24.9922179 Z M55.2149416,32.4705058 L54.2810895,32.4705058 L54.2810895,48.8185214 C54.2810895,49.0753307 54.4912062,49.2854475 54.7480156,49.2854475 C55.0048249,49.2854475 55.2149416,49.0753307 55.2149416,48.8185214 L55.2149416,48.8185214 L55.2149416,32.4705058 Z M30.4659922,10.9713619 C19.9097276,10.9713619 11.3220233,19.5590661 11.3220233,30.1153307 C11.3220233,40.6715953 19.9097276,49.2592996 30.4659922,49.2592996 C41.0222568,49.2592996 49.6099611,40.6715953 49.6099611,30.1153307 C49.6099611,19.5590661 41.0222568,10.9713619 30.4659922,10.9713619 Z M30.4659922,15.6406226 C38.4476265,15.6406226 44.9407004,22.1336965 44.9407004,30.1153307 C44.9407004,38.096965 38.4476265,44.5900389 30.4659922,44.5900389 C22.484358,44.5900389 15.991284,38.096965 15.991284,30.1153307 C15.991284,22.1336965 22.484358,15.6406226 30.4659922,15.6406226 Z M30.4659922,17.5083268 C23.5143969,17.5083268 17.8589883,23.1637354 17.8589883,30.1153307 C17.8589883,37.0669261 23.5143969,42.7223346 30.4659922,42.7223346 C37.4175875,42.7223346 43.0729961,37.0669261 43.0729961,30.1153307 C43.0729961,23.1637354 37.4175875,17.5083268 30.4659922,17.5083268 Z M54.2810895,11.0684825 L54.2810895,30.6028016 L58.0164981,30.6028016 L58.0164981,15.644358 C58.0164981,13.3900389 56.4093385,11.5036576 54.2810895,11.0684825 L54.2810895,11.0684825 Z M8.52046693,19.3872374 L1.98350195,19.3872374 L1.98350195,21.2568093 C1.98350195,22.2868482 2.82116732,23.1245136 3.85120623,23.1245136 L3.85120623,23.1245136 L6.65276265,23.1245136 C7.68280156,23.1245136 8.52046693,22.2868482 8.52046693,21.2568093 L8.52046693,21.2568093 L8.52046693,19.3872374 Z" id="Combined-Shape" fill="#44454B"></path>
    </g>
</svg>