<?xml version="1.0" encoding="UTF-8"?>
<svg width="60px" height="60px" viewBox="0 0 60 60" version="1.1" xmlns="http://www.w3.org/2000/svg" xmlns:xlink="http://www.w3.org/1999/xlink">
    <!-- Generator: Sketch 63.1 (92452) - https://sketch.com -->
    <title>Icons/Medecin</title>
    <desc>Created with Sketch.</desc>
    <g id="Icons/Medecin" stroke="none" stroke-width="1" fill="none" fill-rule="evenodd">
        <path d="M30.1173047,0 C31.0880859,0 31.8751172,0.78703125 31.8751172,1.7578125 L31.8751172,1.7578125 L31.8751172,3.52277344 C35.7772266,3.67195312 38.9063672,6.89121094 38.9063672,10.8292969 C38.9063672,12.0998437 38.5732031,13.3545703 37.9428516,14.4577734 C37.5353906,15.1747266 26.3585156,34.8472266 26.3585156,34.8472266 C25.2488672,36.7889062 23.3341406,38.1877734 21.2109375,38.6958984 L21.2109375,38.6958984 L21.2109375,52.96875 C21.2109375,54.8744531 22.8745313,56.484375 24.84375,56.484375 C26.7822656,56.484375 28.359375,54.9072656 28.359375,52.96875 L28.359375,52.96875 L28.359375,45.9375 C28.359375,42.0604687 31.5135937,38.90625 35.390625,38.90625 C39.2676563,38.90625 42.421875,42.0604687 42.421875,45.9375 L42.421875,45.9375 L42.421875,52.96875 C42.421875,54.9072656 43.9989844,56.484375 45.9375,56.484375 C47.8760156,56.484375 49.453125,54.9072656 49.453125,52.96875 L49.453125,52.96875 L49.453125,35.0966016 C45.44625,34.2799219 42.421875,30.7289063 42.421875,26.484375 C42.421875,21.6380859 46.3646484,17.6953125 51.2109375,17.6953125 C56.0572266,17.6953125 60,21.6380859 60,26.484375 C60,30.7289062 56.975625,34.2800391 52.96875,35.0966016 L52.96875,35.0966016 L52.96875,52.96875 C52.96875,56.8457813 49.8145313,60 45.9375,60 C42.0604687,60 38.90625,56.8457813 38.90625,52.96875 L38.90625,52.96875 L38.90625,45.9375 C38.90625,43.9989844 37.3291406,42.421875 35.390625,42.421875 C33.4521094,42.421875 31.875,43.9989844 31.875,45.9375 L31.875,45.9375 L31.875,52.96875 C31.875,56.8457813 28.7207813,60 24.84375,60 C20.9772656,60 17.6953125,56.8778906 17.6953125,52.96875 L17.6953125,52.96875 L17.6953125,38.6960156 C15.5722266,38.188125 13.6578516,36.7898438 12.5499609,34.8510938 C12.5499609,34.8510938 1.29152344,15.0352734 0.96140625,14.4541406 C0.333164062,13.3544531 0,12.0998437 0,10.8292969 C0,6.89121094 3.12914063,3.67183594 7.03125,3.52277344 L7.03125,3.52277344 L7.03125,1.7578125 C7.03125,0.78703125 7.81828125,0 8.7890625,0 C9.75984375,0 10.546875,0.78703125 10.546875,1.7578125 L10.546875,1.7578125 L10.546875,8.7890625 C10.546875,9.75984375 9.75984375,10.546875 8.7890625,10.546875 C7.81828125,10.546875 7.03125,9.75984375 7.03125,8.7890625 L7.03125,8.7890625 L7.03125,7.04285156 C5.06859375,7.18792969 3.515625,8.83007812 3.515625,10.8292969 C3.515625,11.4890625 3.68871094,12.1407422 4.01613281,12.7136719 L4.01613281,12.7136719 L10.8411328,24.7265625 L28.0651172,24.7265625 L34.8882422,12.7174219 C35.2176562,12.1407422 35.3907422,11.4890625 35.3907422,10.8292969 C35.3907422,8.83007812 33.8377734,7.18792969 31.8751172,7.04285156 L31.8751172,7.04285156 L31.8751172,8.7890625 C31.8751172,9.75984375 31.0880859,10.546875 30.1173047,10.546875 C29.1465234,10.546875 28.3594922,9.75984375 28.3594922,8.7890625 L28.3594922,8.7890625 L28.3594922,1.7578125 C28.3594922,0.78703125 29.1465234,0 30.1173047,0 Z M26.0677734,28.2421875 L12.8385937,28.2421875 L15.6044531,33.1105078 C16.3829297,34.4728125 17.9305078,35.390625 19.453125,35.390625 C20.9757422,35.390625 22.5233203,34.4728125 23.3040234,33.1066406 L23.3040234,33.1066406 L26.0677734,28.2421875 Z M51.2109375,21.2109375 C48.3031641,21.2109375 45.9375,23.5766016 45.9375,26.484375 C45.9375,29.3921484 48.3031641,31.7578125 51.2109375,31.7578125 C54.1187109,31.7578125 56.484375,29.3921484 56.484375,26.484375 C56.484375,23.5766016 54.1187109,21.2109375 51.2109375,21.2109375 Z M51.2109375,24.7265625 C52.1817505,24.7265625 52.96875,25.513562 52.96875,26.484375 C52.96875,27.455188 52.1817505,28.2421875 51.2109375,28.2421875 C50.2401245,28.2421875 49.453125,27.455188 49.453125,26.484375 C49.453125,25.513562 50.2401245,24.7265625 51.2109375,24.7265625 Z" id="Combined-Shape" fill="#44454B"></path>
    </g>
</svg>