<?xml version="1.0" encoding="UTF-8"?>
<svg width="60px" height="60px" viewBox="0 0 60 60" version="1.1" xmlns="http://www.w3.org/2000/svg" xmlns:xlink="http://www.w3.org/1999/xlink">
    <!-- Generator: Sketch 63.1 (92452) - https://sketch.com -->
    <title>Icons/Musique</title>
    <desc>Created with Sketch.</desc>
    <g id="Icons/Musique" stroke="none" stroke-width="1" fill="none" fill-rule="evenodd">
        <path d="M59.8791504,44.2680359 L59.8791504,15.8102416 C59.8791504,15.8097839 59.8791504,15.8093262 59.8791504,15.8088684 L59.8791504,1.75964355 C59.8791504,1.19338992 59.6063232,0.661468477 59.1467285,0.330963164 C58.6866761,-2.38686103e-05 58.0961609,-0.0888060938 57.5592041,0.0915527344 L19.4407654,12.8965759 C18.7243652,13.1373596 18.2418823,13.808899 18.2418823,14.5646667 L18.2418823,28.6917115 L18.2418823,28.6930847 L18.2418823,42.3403931 C16.3096618,40.7112122 13.7493896,39.717865 10.9442139,39.717865 C4.9420166,39.717865 0.05859375,44.2671204 0.05859375,49.8587037 C0.05859375,55.4507447 4.9420166,60 10.9442139,60 C16.9468689,60 21.829834,55.4507447 21.829834,49.8587037 C21.829834,49.4728089 21.8060303,49.0919495 21.7607116,48.7165833 L21.7607116,29.9185181 L56.360321,18.2954407 L56.360321,37.5292969 C54.4235229,35.8804322 51.8472291,34.8728943 49.0228271,34.8728943 C43.0201721,34.8728943 38.137207,39.4221497 38.137207,45.013733 C38.137207,50.605774 43.0201721,55.1550293 49.0228271,55.1550293 C55.0250244,55.1550293 59.9084473,50.605774 59.9084473,45.013733 C59.9084473,44.7628784 59.8983764,44.5143128 59.8791504,44.2680359 Z M10.9442139,56.4811706 C6.88201898,56.4811706 3.57742312,53.5107422 3.57742312,49.8591614 C3.57742312,46.2075806 6.88201898,43.2366943 10.9442139,43.2366943 C15.0064088,43.2366943 18.3114623,46.2075806 18.3114623,49.8591614 C18.3114623,53.5107422 15.0064088,56.4811706 10.9442139,56.4811706 Z M21.7607116,26.2065124 L21.7607116,15.8294678 L56.360321,4.20639035 L56.360321,14.583435 L21.7607116,26.2065124 Z M49.0228271,51.6361999 C44.9606323,51.6361999 41.6555787,48.6657715 41.6555787,45.013733 C41.6555787,41.3621521 44.9606323,38.3917236 49.0228271,38.3917236 C53.085022,38.3917236 56.3896179,41.3621521 56.3896179,45.013733 C56.3896179,48.6657715 53.085022,51.6361999 49.0228271,51.6361999 L49.0228271,51.6361999 Z" id="Shape" fill="#44454B"></path>
    </g>
</svg>