<?xml version="1.0" encoding="UTF-8"?>
<svg width="60px" height="60px" viewBox="0 0 60 60" version="1.1" xmlns="http://www.w3.org/2000/svg" xmlns:xlink="http://www.w3.org/1999/xlink">
    <!-- Generator: Sketch 63.1 (92452) - https://sketch.com -->
    <title>Icons/Non</title>
    <desc>Created with Sketch.</desc>
    <g id="Icons/Non" stroke="none" stroke-width="1" fill="none" fill-rule="evenodd">
        <path d="M51.1837929,8.74420172 C45.5194253,3.10409543 37.9988258,0 30.0003212,0 L29.9577492,0 C25.879075,0.00549316406 21.9212502,0.82168582 18.1932229,2.42523188 C14.5984048,3.97201535 11.376664,6.17843625 8.6172646,8.98406977 C2.94053733,14.7555541 -0.118697318,22.3667907 0.00352561121,30.4151917 C0.0772255331,35.3018189 1.36354151,40.1394654 3.72193995,44.4039916 C3.76634299,44.4841003 3.77687159,44.573822 3.75123682,44.6507263 L0.300614205,54.9842835 C-0.142501029,56.3117981 0.176560221,57.7711487 1.13374409,58.7928772 C1.86479264,59.573822 2.8750771,60 3.91557389,60 C4.23921284,60 4.56559842,59.9588013 4.88694846,59.8745728 L16.5503091,56.8107605 C16.6189736,56.7924499 16.6931314,56.8002319 16.7590493,56.8327331 C20.9054726,58.8734436 25.3604287,59.9079895 29.9994058,59.9079895 C38.0066079,59.9079895 45.5450601,56.7741394 51.2268228,51.0845947 C56.8957681,45.4074096 60.0113076,37.8872681 59.9994397,29.9098206 C59.9884194,21.9104004 56.8573159,14.3934632 51.1837929,8.74420172 Z M48.7393349,48.6003113 C43.7222451,53.6247253 37.0668191,56.3919068 29.9998635,56.3919068 C25.9033364,56.3919068 21.9706887,55.479126 18.3113258,53.6782837 C17.4868935,53.2722473 16.5443582,53.1770325 15.6572121,53.4100342 L3.99430936,56.4738464 C3.87941065,56.5040589 3.7805337,56.4756775 3.69950944,56.3896179 C3.580491,56.2623596 3.62168967,56.1387634 3.63542264,56.0980225 L7.08604514,45.7635498 C7.42204374,44.7564697 7.3176735,43.6408997 6.79856956,42.7024841 C4.71849143,38.94104 3.58415311,34.6733093 3.51869288,30.3616334 C3.41066065,23.2617187 6.11146631,16.5449524 11.1235207,11.4491272 C16.145646,6.34323117 22.8363198,3.52569586 29.9627847,3.515625 L29.9998635,3.515625 C37.0617837,3.515625 43.7025613,6.25625613 48.7031715,11.2353516 C53.7106484,16.2213135 56.4741676,22.8552246 56.4842661,29.914856 C56.4943094,36.9525146 53.7436074,43.5882568 48.7393349,48.6003112 L48.7393349,48.6003113 Z" id="Combined-Shape" fill="#44454B"></path>
        <path d="M21.4467378,21.3363696 L21.5606602,21.4393398 L29.75,29.629 L37.9393398,21.4393398 L38.0532622,21.3363696 C38.642423,20.8558416 39.5114854,20.890165 40.0606602,21.4393398 C40.609835,21.9885146 40.6441584,22.857577 40.1636304,23.4467378 L40.0606602,23.5606602 L31.871,31.75 L40.0606602,39.9393398 C40.6464466,40.5251263 40.6464466,41.4748737 40.0606602,42.0606602 C39.5114854,42.609835 38.642423,42.6441584 38.0532622,42.1636304 L37.9393398,42.0606602 L29.75,33.871 L21.5606602,42.0606602 L21.4467378,42.1636304 C20.857577,42.6441584 19.9885146,42.609835 19.4393398,42.0606602 C18.890165,41.5114854 18.8558416,40.642423 19.3363696,40.0532622 L19.4393398,39.9393398 L27.629,31.75 L19.4393398,23.5606602 C18.8535534,22.9748737 18.8535534,22.0251263 19.4393398,21.4393398 C19.9885146,20.890165 20.857577,20.8558416 21.4467378,21.3363696 Z" id="Path-4" fill="#F31C1C" fill-rule="nonzero" transform="translate(29.750000, 31.750000) scale(-1, 1) translate(-29.750000, -31.750000) "></path>
    </g>
</svg>