<?xml version="1.0" encoding="UTF-8"?>
<svg width="60px" height="60px" viewBox="0 0 60 60" version="1.1" xmlns="http://www.w3.org/2000/svg" xmlns:xlink="http://www.w3.org/1999/xlink">
    <!-- Generator: Sketch 63.1 (92452) - https://sketch.com -->
    <title>Icons/Oui</title>
    <desc>Created with Sketch.</desc>
    <g id="Icons/Oui" stroke="none" stroke-width="1" fill="none" fill-rule="evenodd">
        <path d="M51.1839294,8.74420172 C45.5195618,3.10409543 37.9989623,0 30.0004577,0 L29.9578857,0 C25.8792115,0.00549316406 21.9213867,0.82168582 18.1933594,2.42523188 C14.5985413,3.97201535 11.3768005,6.17843625 8.61740109,8.98406977 C2.94067383,14.7555541 -0.11856082,22.3667907 0.00366210938,30.4151917 C0.0773620313,35.3018189 1.36367801,40.1394654 3.72207645,44.4039916 C3.76647949,44.4841003 3.77700809,44.573822 3.75137332,44.6507263 L0.300750703,54.9842835 C-0.142364531,56.3117981 0.176696719,57.7711487 1.13388059,58.7928772 C1.86492914,59.573822 2.87521359,60 3.91571039,60 C4.23934934,60 4.56573492,59.9588013 4.88708496,59.8745728 L16.5504456,56.8107605 C16.6191101,56.7924499 16.6932679,56.8002319 16.7591858,56.8327331 C20.9056091,58.8734436 25.3605652,59.9079895 29.9995423,59.9079895 C38.0067444,59.9079895 45.5451966,56.7741394 51.2269593,51.0845947 C56.8959046,45.4074096 60.0114441,37.8872681 59.9995762,29.9098206 C59.9885559,21.9104004 56.8574524,14.3934632 51.1839294,8.74420172 Z M48.7394714,48.6003112 C43.7223816,53.6247253 37.0669556,56.3919068 30,56.3919068 C25.9034729,56.3919068 21.9708252,55.479126 18.3114623,53.6782837 C17.48703,53.2722473 16.5444947,53.1770325 15.6573486,53.4100342 L3.99444586,56.4738464 C3.87954715,56.5040589 3.7806702,56.4756775 3.69964594,56.3896179 C3.5806275,56.2623596 3.62182617,56.1387634 3.63555914,56.0980225 L7.08618164,45.7635498 C7.42218023,44.7564697 7.31781,43.6408997 6.79870605,42.7024841 C4.71862793,38.94104 3.58428961,34.6733093 3.51882938,30.3616334 C3.41079715,23.2617187 6.11160281,16.5449524 11.1236572,11.4491272 C16.1457825,6.34323117 22.8364563,3.52569586 29.9629212,3.515625 L30,3.515625 C37.0619202,3.515625 43.7026978,6.25625613 48.703308,11.2353516 C53.7107849,16.2213135 56.4743041,22.8552246 56.4844026,29.914856 C56.4944459,36.9525146 53.7437439,43.5882568 48.7394714,48.6003112 L48.7394714,48.6003112 Z" id="Combined-Shape" fill="#44454B"></path>
        <path d="M39.7349272,24.3164767 C37.1730045,26.6011761 33.2426368,30.3708186 27.1289432,36.4846867 C26.6235658,36.9900641 25.9602752,37.2431603 25.296761,37.2431603 C24.6329275,37.2431603 23.9695359,36.9897515 23.4644863,36.4847019 L17.1602085,30.9095548 L23.1001499,36.8494961 C23.7058405,37.4551866 24.5015617,37.7573548 25.2969361,37.7573548 C26.0921335,37.7573548 26.8877278,37.4553414 27.492994,36.8497665 L39.7349272,24.3164767 Z" id="Path" stroke="#00C480" stroke-width="3"></path>
    </g>
</svg>