<?xml version="1.0" encoding="UTF-8"?>
<svg width="60px" height="60px" viewBox="0 0 60 60" version="1.1" xmlns="http://www.w3.org/2000/svg" xmlns:xlink="http://www.w3.org/1999/xlink">
    <!-- Generator: Sketch 63.1 (92452) - https://sketch.com -->
    <title>Icons/Parler</title>
    <desc>Created with Sketch.</desc>
    <g id="Icons/Parler" stroke="none" stroke-width="1" fill="none" fill-rule="evenodd">
        <path d="M41.8741352,2.22011719 C45.4503462,3.70054687 48.6574165,5.84496094 51.4061665,8.59371094 C54.1550337,11.3424609 56.2994477,14.5495312 57.7797602,18.1257422 C59.3145649,21.8335547 60.060229,25.7667187 59.9961274,29.8160156 C59.8736665,37.5486328 56.7519087,44.8071094 51.2060102,50.2542187 C45.6719477,55.6897266 38.3772602,58.6814062 30.6592915,58.6812891 L30.6131196,58.6812891 L30.6131196,58.6812891 C26.1215571,58.6742578 21.657768,57.6264844 17.6528852,55.6453125 L5.66542428,59.7643359 C5.20440865,59.9227734 4.73190865,60 4.2645649,60 C3.15433053,60 2.07433053,59.5638281 1.25542428,58.7446875 C0.0918695903,57.5811328 -0.298950722,55.8912891 0.235893028,54.3346875 L4.35491647,42.3472266 C2.37374459,38.3424609 1.32597115,33.8786719 1.3189399,29.3871094 C1.30698678,21.6525 4.29960397,14.3389453 9.74577584,8.79410156 C15.192768,3.24820312 22.4512446,0.1265625 30.1838618,0.0038671875 C34.2351508,-0.061171875 38.1663227,0.6853125 41.8741352,2.22011719 Z M30.2403462,3.56097656 C16.2329243,3.78304687 4.85460397,15.3662109 4.87640084,29.3816016 C4.88296334,33.5591016 5.91292428,37.7075391 7.85495553,41.3784375 C8.0848774,41.8129687 8.12460397,42.3233203 7.9648774,42.7882031 L3.60011178,55.490625 C3.47366647,55.8584766 3.65272897,56.1114844 3.77085397,56.229375 C3.88886178,56.3473828 4.14151803,56.5264453 4.50960397,56.4001172 L17.2120258,52.0353516 C17.3998774,51.9708984 17.595229,51.9387891 17.7899946,51.9387891 C18.077104,51.9387891 18.3629243,52.0082812 18.6217915,52.1452734 C22.2929243,54.0874219 26.4413618,55.1175 30.6187446,55.1238281 C44.6285102,55.1464453 56.2174165,43.7671875 56.4393696,29.7596484 C56.5510493,22.7121094 53.870268,16.0885547 48.890854,11.1091406 C43.9114399,6.12984375 37.2898774,3.44953125 30.2403462,3.56097656 Z M29.3405032,31 C30.3376516,31 31.07605,31.8149219 31.119175,32.7786719 C31.1621829,33.7392578 30.2708547,34.5573437 29.3405032,34.5573437 C28.3433547,34.5573437 27.6049563,33.7423047 27.5618313,32.7786719 C27.5188235,31.8180859 28.4101516,31 29.3405032,31 Z M36.9008386,31 C37.8979871,31 38.6363855,31.8149219 38.6795105,32.7786719 C38.7225183,33.7392578 37.8311902,34.5573437 36.9008386,34.5573437 C35.9036902,34.5573437 35.1652917,33.7423047 35.1221667,32.7786719 C35.0791589,31.8180859 35.9704871,31 36.9008386,31 Z M21.7801677,31 C22.7773162,31 23.5157146,31.8149219 23.5588396,32.7786719 C23.6018474,33.7392578 22.7105193,34.5573437 21.7801677,34.5573437 C20.7830193,34.5573437 20.0446208,33.7423047 20.0014958,32.7786719 C19.958488,31.8180859 20.8498162,31 21.7801677,31 Z" id="Combined-Shape" fill="#44454B"></path>
    </g>
</svg>