<?xml version="1.0" encoding="UTF-8"?>
<svg width="60px" height="60px" viewBox="0 0 60 60" version="1.1" xmlns="http://www.w3.org/2000/svg" xmlns:xlink="http://www.w3.org/1999/xlink">
    <!-- Generator: Sketch 63.1 (92452) - https://sketch.com -->
    <title>Icons/Télévision</title>
    <desc>Created with Sketch.</desc>
    <g id="Icons/Télévision" stroke="none" stroke-width="1" fill="none" fill-rule="evenodd">
        <path d="M19.8509766,0.180234375 C20.7219141,-0.247382812 21.7757812,0.112265625 22.2032812,0.98390625 L22.2032812,0.98390625 L27.7137891,12.2135156 C28.4497266,12.0435938 29.2153125,11.9534766 30.0003516,11.9534766 C30.7853906,11.9534766 31.5508594,12.0435938 32.2869141,12.2135156 L32.2869141,12.2135156 L37.7973047,0.983789063 C38.2248047,0.112265625 39.2780859,-0.247382812 40.1496094,0.180117188 C41.0211328,0.607734375 41.3808984,1.66101563 40.9532812,2.53253906 L40.9532812,2.53253906 L35.5242188,13.5964453 C37.426875,14.8437891 38.8860938,16.7267578 39.5930859,18.9847266 L39.5930859,18.9847266 L53.5549219,18.9847266 C57.1088672,18.9847266 60.0002344,21.8760938 60.0002344,25.4301563 L60.0002344,25.4301563 L60.0002344,53.5551563 C60.0002344,57.1091016 57.1088672,60.0004688 53.5549219,60.0004688 L53.5549219,60.0004688 L6.44554687,60.0004688 C2.89160156,60.0004688 0.000234375,57.1091016 0.000234375,53.5551563 L0.000234375,53.5551563 L0.000234375,25.4301563 C0.000234375,21.8762109 2.89160156,18.9848438 6.44554687,18.9848438 L6.44554687,18.9848438 L20.4076172,18.9848438 C21.1147266,16.7267578 22.5739453,14.8439063 24.4763672,13.5965625 L24.4763672,13.5965625 L19.0473047,2.53265625 C18.6195703,1.66113281 18.9793359,0.607851563 19.8509766,0.180234375 Z M53.5549219,22.5003516 L6.44554687,22.5003516 C4.83011719,22.5003516 3.51585937,23.8146094 3.51585937,25.4300391 L3.51585937,25.4300391 L3.51585937,53.5550391 C3.51585937,55.1704688 4.83011719,56.4847266 6.44554687,56.4847266 L6.44554687,56.4847266 L53.5549219,56.4847266 C55.1703516,56.4847266 56.4846094,55.1704688 56.4846094,53.5550391 L56.4846094,53.5550391 L56.4846094,25.4300391 C56.4846094,23.8146094 55.1703516,22.5003516 53.5549219,22.5003516 L53.5549219,22.5003516 Z M44.1799219,26.0159766 C45.1507031,26.0159766 45.9377344,26.8030078 45.9377344,27.7737891 L45.9377344,27.7737891 L45.9377344,51.2112891 C45.9377344,52.1820703 45.1507031,52.9691016 44.1799219,52.9691016 L44.1799219,52.9691016 L8.78929687,52.9691016 C7.81851562,52.9691016 7.03148437,52.1820703 7.03148437,51.2112891 L7.03148437,51.2112891 L7.03148437,27.7737891 C7.03148437,26.8030078 7.81851562,26.0159766 8.78929687,26.0159766 L8.78929687,26.0159766 Z M51.2111719,49.4534766 C52.1819849,49.4534766 52.9689844,50.240476 52.9689844,51.2112891 C52.9689844,52.1821021 52.1819849,52.9691016 51.2111719,52.9691016 C50.2403588,52.9691016 49.4533594,52.1821021 49.4533594,51.2112891 C49.4533594,50.240476 50.2403588,49.4534766 51.2111719,49.4534766 Z M42.4221094,29.5316016 L10.5471094,29.5316016 L10.5471094,49.4534766 L42.4221094,49.4534766 L42.4221094,29.5316016 Z M51.2111719,42.4222266 C52.1819849,42.4222266 52.9689844,43.209226 52.9689844,44.1800391 C52.9689844,45.1508521 52.1819849,45.9378516 51.2111719,45.9378516 C50.2403588,45.9378516 49.4533594,45.1508521 49.4533594,44.1800391 C49.4533594,43.209226 50.2403588,42.4222266 51.2111719,42.4222266 Z M51.2111719,35.3909766 C52.1819849,35.3909766 52.9689844,36.177976 52.9689844,37.1487891 C52.9689844,38.1196021 52.1819849,38.9066016 51.2111719,38.9066016 C50.2403588,38.9066016 49.4533594,38.1196021 49.4533594,37.1487891 C49.4533594,36.177976 50.2403588,35.3909766 51.2111719,35.3909766 Z M51.2111719,26.0159766 C52.1819531,26.0159766 52.9689844,26.8030078 52.9689844,27.7737891 L52.9689844,27.7737891 L52.9689844,30.1175391 C52.9689844,31.0883203 52.1819531,31.8753516 51.2111719,31.8753516 C50.2403906,31.8753516 49.4533594,31.0883203 49.4533594,30.1175391 L49.4533594,30.1175391 L49.4533594,27.7737891 C49.4533594,26.8030078 50.2403906,26.0159766 51.2111719,26.0159766 Z M30.0001172,15.4691016 C29.1645703,15.4691016 28.363125,15.6255469 27.6246094,15.9116016 C27.6100781,15.9192188 27.5966016,15.928125 27.5818359,15.9353906 C27.5001562,15.9754688 27.4164844,16.0061719 27.3322266,16.0326563 C25.9886719,16.6298438 24.8789063,17.6680078 24.1957031,18.9848438 L24.1957031,18.9848438 L35.8046484,18.9848438 C35.1214453,17.6680078 34.0115625,16.6297266 32.6676563,16.0325391 C32.5835156,16.0060547 32.4999609,15.9754688 32.4183984,15.9353906 C32.40375,15.928125 32.3902734,15.9193359 32.3758594,15.9117188 C31.6373437,15.6255469 30.8357813,15.4691016 30.0001172,15.4691016 Z" id="Combined-Shape" fill="#44454B"></path>
    </g>
</svg>