<?xml version="1.0" encoding="UTF-8"?>
<svg width="60px" height="60px" viewBox="0 0 60 60" version="1.1" xmlns="http://www.w3.org/2000/svg" xmlns:xlink="http://www.w3.org/1999/xlink">
    <!-- Generator: Sketch 63.1 (92452) - https://sketch.com -->
    <title>Icons/Toilette</title>
    <desc>Created with Sketch.</desc>
    <g id="Icons/Toilette" stroke="none" stroke-width="1" fill="none" fill-rule="evenodd">
        <path d="M59.7178947,26.954269 C59.2956725,25.754152 58.1611696,24.9518129 56.8888889,24.9536842 L21.957076,24.9536842 C21.405848,24.9536842 20.9590643,25.4004678 20.9590643,25.9516959 L20.9590643,28.945848 L18.962924,28.945848 L18.962924,14.9732164 L19.9609357,14.9732164 C21.6145029,14.9732164 22.9550877,13.6327485 22.9550877,11.9790643 C22.9550877,10.3253801 21.6146199,8.98491228 19.9609357,8.98491228 L18.962924,8.98491228 L18.962924,5.99076023 L19.9609357,5.99076023 C20.5121637,5.99076023 20.9589474,5.54397661 20.9589474,4.99274854 L20.9589474,1.00046784 C20.9589474,0.449239766 20.5121637,0.00245614035 19.9609357,0.00245614035 L0.998011696,0.00245614035 C0.446783626,0.00245614035 0,0.449239766 0,1.00046784 L0,4.99263158 C0,5.54385965 0.446783626,5.99064327 0.998011696,5.99064327 L1.99602339,5.99064327 L1.99602339,29.9438596 C1.99602339,30.4950877 2.44280702,30.9418713 2.99403509,30.9418713 L3.99204678,30.9418713 C4.31146199,37.3693567 7.68479532,40.0440936 10.6789474,42.4094737 C14.4715789,45.4036257 18.0445614,48.2280702 15.9585965,58.6877193 C15.8480702,59.2277193 16.1962573,59.7550877 16.7362573,59.865614 C16.8120468,59.8811696 16.8892398,59.8877193 16.9665497,59.8858415 L48.9042105,59.8858415 C49.4554386,59.8858415 49.9022222,59.4383626 49.9021053,58.8871345 C49.9021053,58.7080702 49.8539181,58.5322807 49.7625731,58.3782456 C46.9081871,53.6274854 46.9081871,49.7650292 46.9081871,43.9164912 C53.0362573,41.9203509 57.4575439,36.8003509 57.8867836,30.7721637 C59.4469006,30.2236257 60.2665497,28.514152 59.7178947,26.954269 Z M19.9610526,10.9809357 C20.5122807,10.9809357 20.9590643,11.4277193 20.9590643,11.9789474 C20.9590643,12.5301754 20.5122807,12.9769591 19.9610526,12.9769591 L18.9630409,12.9769591 L18.9630409,10.9809357 L19.9610526,10.9809357 Z M1.99614035,3.99461988 L1.99614035,1.99847953 L18.9630409,1.99847953 L18.9630409,3.99461988 L1.99614035,3.99461988 L1.99614035,3.99461988 Z M3.99216374,5.99076023 L16.9667836,5.99076023 L16.9667836,28.9459649 L3.99216374,28.9459649 L3.99216374,5.99076023 Z M18.1645614,57.8893567 C19.9610526,47.1902924 15.8989474,43.9166082 11.9766082,40.8426901 C9.0522807,38.557193 6.31766082,36.391345 5.98830409,30.9419883 L19.9610526,30.9419883 C20.4101754,36.9302924 24.8115789,41.9205848 30.8797661,43.9166082 C30.8797661,49.545614 30.8797661,53.3481871 28.3047953,57.8893567 L18.1645614,57.8893567 Z M47.2177778,57.8893567 L30.6301754,57.8893567 C32.845848,53.4780117 32.9356725,49.565614 32.9356725,44.4755556 C34.2472515,44.7622222 35.5853801,44.9094737 36.9278363,44.9147368 L40.92,44.9147368 C42.2624561,44.9094737 43.6007018,44.7623392 44.9121637,44.4755556 C44.9122807,49.565614 44.9921637,53.4780117 47.2177778,57.8893567 Z M40.920117,42.9185965 L36.9279532,42.9185965 C29.0632749,42.9185965 22.6059649,37.6288889 22.017076,30.9419883 L55.8309942,30.9419883 C55.2421053,37.6288889 48.7846784,42.9185965 40.920117,42.9185965 Z M56.8888889,28.945848 L22.9552047,28.945848 L22.9552047,26.9497076 L56.8888889,26.9497076 C57.440117,26.9497076 57.8869006,27.3964912 57.8869006,27.9477193 C57.8869006,28.4989474 57.440117,28.945848 56.8888889,28.945848 Z" id="Shape" fill="#44454B"></path>
    </g>
</svg>