<?xml version="1.0" encoding="UTF-8"?>
<svg width="60px" height="60px" viewBox="0 0 60 60" version="1.1" xmlns="http://www.w3.org/2000/svg" xmlns:xlink="http://www.w3.org/1999/xlink">
    <!-- Generator: Sketch 63.1 (92452) - https://sketch.com -->
    <title>Icons/Triste</title>
    <desc>Created with Sketch.</desc>
    <g id="Icons/Triste" stroke="none" stroke-width="1" fill="none" fill-rule="evenodd">
        <path d="M30,0 C46.5417188,0 60,13.4582812 60,30 C60,46.5417188 46.5417188,60 30,60 C13.4582812,60 0,46.5417188 0,30 C0,13.4582812 13.4582812,0 30,0 Z M30,2.49996094 C14.8364062,2.49996094 2.49996094,14.8364062 2.49996094,30 C2.49996094,45.1635937 14.8364062,57.5000391 30,57.5000391 C45.1635937,57.5000391 57.5000391,45.1635937 57.5000391,30 C57.5000391,14.8364062 45.1635937,2.49996094 30,2.49996094 Z M30,35.5 C40.5041016,35.5011719 44.5812891,40.7758984 44.7498047,40.9992578 C45.1648828,41.5522656 45.0525,42.3360156 44.5007813,42.7498047 C44.2749609,42.9182031 44.0124609,43 43.75125,43 C43.3703906,43 42.995625,42.8279687 42.7502344,42.5007812 C42.6134766,42.3238281 39.1674609,38.00125 30,38.0000781 L30,38.0000781 C21.1270161,38.0000781 17.6147238,42.0481685 17.2690537,42.4764019 L17.2449609,42.506875 C16.82625,43.0500391 16.0426172,43.1563281 15.4957031,42.74125 C14.9487891,42.325 14.8376953,41.5499219 15.2503125,41.0005469 C15.4187109,40.7758984 19.4946094,35.5 29.9963672,35.5 L29.9963672,35.5 Z M21.0000391,22.0000391 C22.3807294,22.0000391 23.5,23.1193097 23.5,24.5 C23.5,25.8806903 22.3807294,26.9999609 21.0000391,26.9999609 C19.6193488,26.9999609 18.5000781,25.8806903 18.5000781,24.5 C18.5000781,23.1193097 19.6193488,22.0000391 21.0000391,22.0000391 Z M37.9999609,22.0000391 C39.3806512,22.0000391 40.4999219,23.1193097 40.4999219,24.5 C40.4999219,25.8806903 39.3806512,26.9999609 37.9999609,26.9999609 C36.6192706,26.9999609 35.5,25.8806903 35.5,24.5 C35.5,23.1193097 36.6192706,22.0000391 37.9999609,22.0000391 Z" id="Combined-Shape" fill="#44454B"></path>
    </g>
</svg>