<?xml version="1.0" encoding="UTF-8"?>
<svg width="60px" height="60px" viewBox="0 0 60 60" version="1.1" xmlns="http://www.w3.org/2000/svg" xmlns:xlink="http://www.w3.org/1999/xlink">
    <!-- Generator: Sketch 63.1 (92452) - https://sketch.com -->
    <title>Icons/Voir</title>
    <desc>Created with Sketch.</desc>
    <g id="Icons/Voir" stroke="none" stroke-width="1" fill="none" fill-rule="evenodd">
        <path d="M30,52.3529412 C30.9745882,52.3529412 31.7647059,53.1430588 31.7647059,54.1176471 L31.7647059,54.1176471 L31.7647059,58.2352941 C31.7647059,59.2098824 30.9745882,60 30,60 C29.0254118,60 28.2352941,59.2098824 28.2352941,58.2352941 L28.2352941,58.2352941 L28.2352941,54.1176471 C28.2352941,53.1430588 29.0254118,52.3529412 30,52.3529412 Z M17.0634118,50.6514118 C17.5463529,49.8048235 18.624,49.5101176 19.4705882,49.9928235 C20.3171765,50.4756471 20.6121176,51.5534118 20.1291765,52.4 L20.1291765,52.4 L17.7807059,56.5176471 C17.2978824,57.3641176 16.2202353,57.6590588 15.3735294,57.1762353 C14.5269412,56.6934118 14.2321176,55.6156471 14.7149412,54.7690588 L14.7149412,54.7690588 Z M40.5294118,49.9927059 C41.3757647,49.5101176 42.4537647,49.8047059 42.9365882,50.6514118 L42.9365882,50.6514118 L45.2850588,54.7690588 C45.7678824,55.6156471 45.4730588,56.6934118 44.6264706,57.1762353 C43.7796471,57.6590588 42.702,57.3641176 42.2192941,56.5175294 L42.2192941,56.5175294 L39.8708235,52.3998824 C39.388,51.5532941 39.6828235,50.4755294 40.5294118,49.9927059 Z M30,14.4831765 C42.6008235,14.4831765 54.1463529,22.2367059 59.5996471,28.8807059 C60.1335294,29.5314118 60.1335294,30.4685882 59.5996471,31.1194118 C54.3830588,37.4749412 42.8867059,45.5169412 30,45.5169412 C17.5555294,45.5169412 5.98294118,37.924 0.400352941,31.1192941 C-0.133529412,30.4685882 -0.133529412,29.5314118 0.400352941,28.8807059 C5.808,22.2894118 17.354,14.4831765 30,14.4831765 Z M29.9998824,18.0124706 C23.3898824,18.0124706 18.0123529,23.3901176 18.0123529,30 C18.0123529,36.6095294 23.3897647,41.9875294 29.9998824,41.9875294 C36.6098824,41.9875294 41.9874118,36.6098824 41.9874118,30 C41.9874118,23.3908235 36.6104706,18.0124706 29.9998824,18.0124706 Z M42.3551765,20.6241176 C46.5737647,26.1698824 46.5722353,33.8345882 42.3531765,39.3784706 C49.0761176,36.5189412 53.8652941,32.064 55.8515294,29.9994118 C52.2151765,26.2135294 47.4665882,22.7905882 42.3551765,20.6241176 Z M17.6468235,20.6215294 C10.9238824,23.4809412 6.13470588,27.9361176 4.14847059,30.0004706 C7.78470588,33.7865882 12.5331765,37.2094118 17.6448235,39.3758824 C13.4261176,33.8301176 13.4277647,26.1652941 17.6468235,20.6215294 Z M30,24 C33.3083529,24 36,26.6915294 36,30 C36,33.3084706 33.3083529,36 30,36 C26.6915294,36 24,33.3084706 24,30 C24,26.6915294 26.6915294,24 30,24 Z M30,27.5294118 C28.6376471,27.5294118 27.5294118,28.6376471 27.5294118,30 C27.5294118,31.3623529 28.6376471,32.4705882 30,32.4705882 C31.3622353,32.4705882 32.4705882,31.3623529 32.4705882,30 C32.4705882,28.6376471 31.3622353,27.5294118 30,27.5294118 Z M42.2192941,3.48247059 C42.7022353,2.63564706 43.7796471,2.34094118 44.6264706,2.82376471 C45.4731765,3.30670588 45.7678824,4.38435294 45.2850588,5.23094118 L45.2850588,5.23094118 L42.9365882,9.34858824 C42.4535294,10.1956471 41.3755294,10.4898824 40.5294118,10.0072941 C39.6828235,9.52435294 39.388,8.44658824 39.8708235,7.60011765 L39.8708235,7.60011765 Z M15.3735294,2.82376471 C16.22,2.34094118 17.2978824,2.63576471 17.7807059,3.48235294 L17.7807059,3.48235294 L20.1291765,7.6 C20.612,8.44658824 20.3171765,9.52435294 19.4705882,10.0071765 C18.6238824,10.49 17.5462353,10.1951765 17.0634118,9.34858824 L17.0634118,9.34858824 L14.7149412,5.23094118 C14.2321176,4.38435294 14.5269412,3.30658824 15.3735294,2.82376471 Z M30,-1.07469589e-13 C30.9745882,-1.07469589e-13 31.7647059,0.790117647 31.7647059,1.76470588 L31.7647059,1.76470588 L31.7647059,5.88235294 C31.7647059,6.85694118 30.9745882,7.64705882 30,7.64705882 C29.0254118,7.64705882 28.2352941,6.85694118 28.2352941,5.88235294 L28.2352941,5.88235294 L28.2352941,1.76470588 C28.2352941,0.790117647 29.0254118,-1.07469589e-13 30,-1.07469589e-13 Z" id="Combined-Shape" fill="#44454B"></path>
    </g>
</svg>